<?xml version="1.0" encoding="utf-8"?>
<!-- Generator: Adobe Illustrator 25.3.1, SVG Export Plug-In . SVG Version: 6.00 Build 0)  -->
<svg version="1.1" id="Layer_1" xmlns="http://www.w3.org/2000/svg" xmlns:xlink="http://www.w3.org/1999/xlink" x="0px" y="0px"
	 viewBox="0 0 350 350" style="enable-background:new 0 0 350 350;" xml:space="preserve">
<style type="text/css">
	.st0{fill:none;stroke:#010101;stroke-miterlimit:10;}
</style>
<g id="foot__x5F_2">
	<path class="st0" d="M178.7,185.8L178.7,185.8c-6.5,0-11.8-5.3-11.8-11.8v-11.1c0-6.5,5.3-11.8,11.8-11.8l0,0
		c6.5,0,11.8,5.3,11.8,11.8V174C190.5,180.5,185.2,185.8,178.7,185.8z"/>
	<path class="st0" d="M161.2,172.3c0,2.6-0.9,5-2.3,6.9c-0.2,0-0.4,0-0.6,0h-17.5c-1.5-1.9-2.3-4.3-2.3-6.9
		c0-6.3,5.1-11.4,11.4-11.4C156.1,160.9,161.2,166,161.2,172.3z"/>
	<path class="st0" d="M163.3,172.3c0,2.7-0.8,5.1-2.1,7.2c-0.8-0.2-1.5-0.3-2.3-0.3c-0.2,0-0.4,0-0.6,0h-18.6c-0.5,0-1,0-1.5,0.1
		c-1.2-2-1.9-4.4-1.9-7c0-7.5,6-13.5,13.5-13.5C157.2,158.8,163.3,164.8,163.3,172.3z"/>
	<path class="st0" d="M169,191v11.1c0,3.9-1.7,7.4-4.4,9.5c-3.5-2.9-8.8-4.8-14.7-4.8s-11.1,1.8-14.7,4.8c-2.6-2.2-4.3-5.6-4.3-9.5
		V191c0-6,4.1-11,9.3-11.8c0.4-0.1,0.9-0.1,1.3-0.1h16.7c0.2,0,0.4,0,0.5,0c0.7,0,1.4,0.2,2.1,0.3C165.6,180.8,169,185.5,169,191z"
		/>
	<path class="st0" d="M169,220.9c0,7.5-9.1,13.7-20.3,13.7s-20.3-6.1-20.3-13.7c0-3.4,1.9-6.5,4.9-8.9c3.7-2.9,9.2-4.8,15.3-4.8
		s11.6,1.8,15.3,4.8C167.1,214.4,169,217.5,169,220.9z"/>
	<circle class="st0" cx="149.8" cy="195.4" r="3.4"/>
	<line class="st0" x1="130.9" y1="195.4" x2="146.5" y2="195.4"/>
	<line class="st0" x1="153.2" y1="195.4" x2="168.7" y2="195.4"/>
	<line class="st0" x1="131.8" y1="186.2" x2="168.4" y2="186.2"/>
	<line class="st0" x1="130.8" y1="203.5" x2="168.5" y2="203.5"/>
	<line class="st0" x1="143.2" y1="179.2" x2="143.2" y2="186.2"/>
	<line class="st0" x1="158.7" y1="186.2" x2="158.7" y2="195.4"/>
	<line class="st0" x1="141.6" y1="195.4" x2="141.6" y2="203.5"/>
	<line class="st0" x1="158.7" y1="203.5" x2="158.7" y2="208.3"/>
	<path class="st0" d="M223.2,173.4c0,2.6-0.9,5-2.3,6.9c-0.2,0-0.4,0-0.6,0h-17.5c-1.5-1.9-2.3-4.3-2.3-6.9
		c0-6.3,5.1-11.4,11.4-11.4C218.1,162,223.2,167.1,223.2,173.4z"/>
	<path class="st0" d="M225.4,173.4c0,2.7-0.8,5.1-2.1,7.2c-0.8-0.2-1.5-0.3-2.3-0.3c-0.2,0-0.4,0-0.6,0h-18.6c-0.5,0-1,0-1.5,0.1
		c-1.2-2-1.9-4.4-1.9-7c0-7.5,6-13.5,13.5-13.5C219.3,159.9,225.4,165.9,225.4,173.4z"/>
	<path class="st0" d="M231,192.1v11.1c0,3.9-1.7,7.4-4.4,9.5c-3.5-2.9-8.8-4.8-14.7-4.8s-11.1,1.8-14.7,4.8
		c-2.6-2.2-4.3-5.6-4.3-9.5v-11.1c0-6,4.1-11,9.3-11.8c0.4-0.1,0.9-0.1,1.3-0.1h16.9c0.2,0,0.4,0,0.5,0c0.7,0,1.4,0.2,2.1,0.3
		C227.6,181.9,231,186.6,231,192.1z"/>
	<path class="st0" d="M231.1,222c0,7.5-8.5,13.7-19.1,13.7c-10.5,0-19.1-6.1-19.1-13.7c0-3.4,1.8-6.5,4.6-8.9
		c3.5-2.9,8.7-4.8,14.4-4.8s10.9,1.8,14.4,4.8C229.3,215.5,231.1,218.6,231.1,222z"/>
	<circle class="st0" cx="211.9" cy="196.5" r="3.4"/>
	<line class="st0" x1="193" y1="196.5" x2="208.5" y2="196.5"/>
	<line class="st0" x1="215.3" y1="196.5" x2="230.8" y2="196.5"/>
	<line class="st0" x1="193.9" y1="187.4" x2="230.4" y2="187.4"/>
	<line class="st0" x1="192.9" y1="204.6" x2="230.6" y2="204.6"/>
	<line class="st0" x1="205.2" y1="180.3" x2="205.2" y2="187.4"/>
	<line class="st0" x1="220.8" y1="187.4" x2="220.8" y2="196.5"/>
	<line class="st0" x1="203.7" y1="196.5" x2="203.7" y2="204.6"/>
	<line class="st0" x1="220.8" y1="204.6" x2="220.8" y2="209.5"/>
</g>
</svg>
