<?xml version="1.0" encoding="utf-8"?>
<!-- Generator: Adobe Illustrator 24.0.0, SVG Export Plug-In . SVG Version: 6.00 Build 0)  -->
<svg version="1.1" id="Layer_1" xmlns="http://www.w3.org/2000/svg" xmlns:xlink="http://www.w3.org/1999/xlink" x="0px" y="0px"
	 viewBox="0 0 350 350" style="enable-background:new 0 0 350 350;" xml:space="preserve">
<style type="text/css">
	.st0{fill:none;stroke:#010101;stroke-miterlimit:10;}
</style>
<path class="st0" d="M153.89,180.39L153.89,180.39c-2.28,0-4.14-1.86-4.14-4.14v-2.38c0-2.28,1.86-4.14,4.14-4.14l0,0
	c2.28,0,4.14,1.86,4.14,4.14v2.38C158.02,178.52,156.16,180.39,153.89,180.39z"/>
<path class="st0" d="M195.92,180.39L195.92,180.39c-2.28,0-4.14-1.86-4.14-4.14v-2.38c0-2.28,1.86-4.14,4.14-4.14l0,0
	c2.28,0,4.14,1.86,4.14,4.14v2.38C200.06,178.52,198.2,180.39,195.92,180.39z"/>
</svg>
