<?xml version="1.0" encoding="utf-8"?>
<!-- Generator: Adobe Illustrator 25.3.1, SVG Export Plug-In . SVG Version: 6.00 Build 0)  -->
<svg version="1.1" id="Layer_1" xmlns="http://www.w3.org/2000/svg" xmlns:xlink="http://www.w3.org/1999/xlink" x="0px" y="0px"
	 viewBox="0 0 350 350" style="enable-background:new 0 0 350 350;" xml:space="preserve">
<style type="text/css">
	.st0{fill:#FFFFFF;stroke:#000000;stroke-miterlimit:10;}
	.st1{fill:none;stroke:#000000;stroke-linecap:round;stroke-miterlimit:10;}
	.st2{fill:none;stroke:#000000;stroke-miterlimit:10;}
	.st3{fill:#FFFFFF;stroke:#000000;stroke-width:1;stroke-miterlimit:9.9998;}
</style>
<g id="background">
	<polygon class="st0" points="68.5,15.7 40.8,53.8 0,49.4 0,0 61.6,0 	"/>
	<polygon class="st0" points="173.9,150.5 127.1,145.6 107.9,102.6 135.6,64.5 182.4,69.4 201.6,112.5 	"/>
	<polygon class="st0" points="107.2,102 60.3,97.1 41.2,54 68.9,15.9 115.8,20.9 134.9,63.9 	"/>
	<polygon class="st0" points="98.4,183.4 51.6,178.5 32.5,135.4 60.2,97.4 107,102.3 126.1,145.4 	"/>
	<polygon class="st0" points="90.4,265.3 43.5,260.3 24.4,217.3 52.1,179.2 99,184.2 118.1,227.2 	"/>
	<polygon class="st0" points="164.7,231.7 117.9,226.7 98.8,183.7 126.5,145.6 173.3,150.6 192.4,193.6 	"/>
	<polygon class="st0" points="239.3,198.1 192.4,193.2 173.3,150.1 201,112.1 247.9,117 267,160 	"/>
	<polygon class="st0" points="248,117.2 201.1,112.3 182,69.2 209.7,31.2 256.5,36.1 275.7,79.2 	"/>
	<polygon class="st0" points="210.2,20.9 182.5,59 135.6,54 116.5,11 124.5,0 200.9,0 	"/>
	<polygon class="st0" points="50,96.5 25.9,129.6 0,126.8 0,55.7 33.4,59.2 	"/>
	<polygon class="st0" points="51.4,178.7 23.7,216.8 0,214.3 0,132.2 32.3,135.7 	"/>
	<polygon class="st0" points="350,114.4 350,134 327.7,164.6 280.9,159.7 261.8,116.7 289.5,78.6 336.3,83.5 	"/>
	<polygon class="st0" points="350,12.6 350,45.9 331.5,71.4 284.7,66.4 265.5,23.4 282.5,0 344.4,0 	"/>
	<polygon class="st0" points="308.4,255.1 261.5,250.2 242.4,207.2 270.1,169.1 317,174 336.1,217.1 	"/>
	<polygon class="st0" points="155.8,312.9 108.9,307.9 89.8,264.9 117.5,226.8 164.4,231.8 183.5,274.8 	"/>
	<polygon class="st0" points="230.1,279.3 183.3,274.3 164.2,231.3 191.9,193.2 238.7,198.1 257.8,241.2 	"/>
	<polygon class="st0" points="39.7,264.2 11.9,302.3 0,301 0,219 20.5,221.2 	"/>
	<polygon class="st0" points="107.4,319.9 85.5,350 31.5,350 13.7,310 41.4,271.9 88.3,276.8 	"/>
	<polygon class="st0" points="253.2,330.9 239.4,350 172.5,350 159.6,321 187.3,282.9 234.1,287.9 	"/>
	<polygon class="st0" points="166.8,350 92,350 110.7,324.3 157.6,329.2 	"/>
	<polygon class="st0" points="308.4,343 261.5,338.1 242.4,295 270.1,257 317,261.9 336.1,305 	"/>
	<polygon class="st0" points="350,150 350,221.7 348.4,221.5 329.3,178.5 	"/>
	<polygon class="st0" points="350,222.4 350,304.5 339.6,303.4 320.5,260.3 348.2,222.3 	"/>
	<polygon class="st0" points="26,350 0,350 0,308.5 7.9,309.3 	"/>
	<polygon class="st0" points="350,309 350,350 314.2,350 312.5,346 340.2,307.9 	"/>
</g>
<g id="face">
	<path class="st0" d="M185.4,87.5h-18.6c-4.8,0-8.7-3.9-8.7-8.7V68.2c0-4.8,3.9-8.7,8.7-8.7h18.6c4.8,0,8.7,3.9,8.7,8.7v10.6
		C194.1,83.6,190.2,87.5,185.4,87.5z"/>
</g>
<g id="eye">
	<circle class="st0" cx="167" cy="70.1" r="2.1"/>
	<circle class="st0" cx="185.3" cy="69.5" r="4"/>
</g>
<g id="ear">
	<path class="st0" d="M194.1,66.7v12.6c2.6,0,4.8-2.8,4.8-6.3C198.9,69.5,196.8,66.7,194.1,66.7z"/>
	<path class="st0" d="M158.1,66.7v12.6c-2.6,0-4.8-2.8-4.8-6.3C153.3,69.5,155.4,66.7,158.1,66.7z"/>
	<line class="st1" x1="156.2" y1="55" x2="156.2" y2="66.7"/>
	<line class="st1" x1="196.5" y1="42.4" x2="196.5" y2="67.6"/>
</g>
<g id="hand">
	<g>
		<circle class="st0" cx="219.8" cy="109" r="9"/>
		<circle class="st0" cx="219.8" cy="109" r="7.2"/>
		<path class="st0" d="M241.9,129.3l-7.1,2.3c-2.8,0.9-5.7-0.6-6.6-3.4l-12.7-39.7c-0.9-2.8,0.6-5.7,3.4-6.6l7.1-2.3
			c2.8-0.9,5.7,0.6,6.6,3.4l12.7,39.7C246.1,125.5,244.6,128.4,241.9,129.3z"/>
		<path class="st0" d="M235.7,136.6l10.1-3.2c2.1-0.7,3.2-2.9,2.6-5l-0.4-1.1c-0.7-2.1-2.9-3.2-5-2.6l-10.1,3.2
			c-2.1,0.7-3.2,2.9-2.6,5l0.4,1.1C231.4,136.1,233.6,137.2,235.7,136.6z"/>
		<path class="st0" d="M255.2,171.4l-5,1.6c-2.8,0.9-5.7-0.6-6.6-3.4l-10.1-31.7c-0.9-2.8,0.6-5.7,3.4-6.6l5-1.6
			c2.8-0.9,5.7,0.6,6.6,3.4l10.2,31.7C259.4,167.6,257.9,170.5,255.2,171.4z"/>
		<path class="st0" d="M249,178.2l10.1-3.2c2.1-0.7,3.2-2.9,2.5-5l-0.4-1.1c-0.7-2.1-2.9-3.2-5-2.6l-10.1,3.2
			c-2.1,0.7-3.2,2.9-2.6,5l0.4,1.1C244.8,177.7,247,178.9,249,178.2z"/>
		<path class="st0" d="M261.2,173.6c2.4,1.1,4.7,2.1,7.1,3.2c1.2,7.1,2.3,14.2,3.5,21.3c-2.1-6.4-4.2-12.8-6.3-19.1l-6.5-3.9
			C259.7,174.6,260.4,174.1,261.2,173.6z"/>
		<polygon class="st0" points="248.1,178.4 246,184.3 258.9,201 250.1,183.2 250.7,177.8 		"/>
		<path class="st0" d="M256.5,176.1c1.1,1.9,2.2,3.8,3.4,5.7c1.6,5,3.1,10.1,4.7,15.1c-2.9-4.4-5.7-8.8-8.6-13.2
			c-0.9-2.2-1.8-4.4-2.6-6.6C254.4,176.7,255.5,176.4,256.5,176.1z"/>
		<circle class="st0" cx="225.4" cy="90" r="2.4"/>
		<circle class="st0" cx="234.3" cy="118" r="2.4"/>
		<line class="st2" x1="226.3" y1="92.2" x2="233.4" y2="115.8"/>
		<line class="st2" x1="242.9" y1="115.3" x2="236.5" y2="117.1"/>
		<line class="st2" x1="232.1" y1="118.9" x2="225.9" y2="121"/>
		<line class="st2" x1="222.9" y1="90.8" x2="216.7" y2="92.9"/>
		<line class="st2" x1="233.8" y1="86.9" x2="227.6" y2="89.1"/>
		<path class="st2" d="M243.5,129.7c0,8.9,4,16,8.9,16"/>
		<line class="st2" x1="254.2" y1="151.4" x2="239.2" y2="155.8"/>
		<circle class="st0" cx="248.7" cy="160.3" r="2.4"/>
		<line class="st2" x1="242.5" y1="124.9" x2="244.3" y2="129.9"/>
		<line class="st2" x1="232.6" y1="128.1" x2="234.3" y2="133.7"/>
		<line class="st2" x1="247.8" y1="143.2" x2="236.4" y2="146.6"/>
		<line class="st2" x1="242.1" y1="144.9" x2="245.2" y2="154.1"/>
		<line class="st2" x1="247.3" y1="143.4" x2="250.1" y2="152.1"/>
		<circle class="st0" cx="132.3" cy="107" r="9"/>
		<circle class="st0" cx="132.3" cy="107" r="7.2"/>
		<path class="st0" d="M110.3,127.3l7.1,2.3c2.8,0.9,5.7-0.6,6.6-3.4l12.7-39.7c0.9-2.8-0.6-5.7-3.4-6.6l-7.1-2.3
			c-2.8-0.9-5.7,0.6-6.6,3.4l-12.7,39.7C106,123.4,107.5,126.4,110.3,127.3z"/>
		<path class="st0" d="M116.4,134.6l-10.1-3.2c-2.1-0.7-3.2-2.9-2.6-5l0.4-1.1c0.7-2.1,2.9-3.2,5-2.6l10.1,3.2
			c2.1,0.7,3.2,2.9,2.6,5l-0.4,1.1C120.7,134.1,118.5,135.2,116.4,134.6z"/>
		<path class="st0" d="M97,169.4l5,1.6c2.8,0.9,5.7-0.6,6.6-3.4l10.2-31.7c0.9-2.8-0.6-5.7-3.4-6.6l-5-1.6c-2.8-0.9-5.7,0.6-6.6,3.4
			l-10.2,31.7C92.7,165.6,94.2,168.5,97,169.4z"/>
		<path class="st0" d="M103.1,176.2L93,173c-2.1-0.7-3.2-2.9-2.6-5l0.4-1.1c0.7-2.1,2.9-3.2,5-2.6l10.1,3.2c2.1,0.7,3.2,2.9,2.6,5
			l-0.4,1.1C107.4,175.7,105.2,176.9,103.1,176.2z"/>
		<path class="st0" d="M91,171.6c-2.4,1.1-4.7,2.1-7.1,3.2c-1.2,7.1-2.3,14.2-3.5,21.3c2.1-6.4,4.2-12.8,6.3-19.1l6.5-3.9
			C92.5,172.6,91.7,172.1,91,171.6z"/>
		<polygon class="st0" points="104,176.4 106.2,182.3 93.3,199 102.1,181.2 101.5,175.8 		"/>
		<path class="st0" d="M95.6,174c-1.1,1.9-2.2,3.8-3.3,5.7c-1.6,5-3.1,10.1-4.7,15.1c2.9-4.4,5.7-8.8,8.6-13.2
			c0.9-2.2,1.8-4.4,2.6-6.6C97.8,174.7,96.7,174.4,95.6,174z"/>
		<circle class="st0" cx="126.8" cy="88" r="2.4"/>
		<circle class="st0" cx="117.8" cy="116" r="2.4"/>
		<line class="st2" x1="125.8" y1="90.2" x2="118.8" y2="113.8"/>
		<line class="st2" x1="111.9" y1="114" x2="115.6" y2="115"/>
		<line class="st2" x1="120.1" y1="116.9" x2="126.3" y2="118.9"/>
		<line class="st2" x1="129.2" y1="88.8" x2="135.5" y2="90.8"/>
		<line class="st2" x1="118.4" y1="84.9" x2="124.6" y2="87.1"/>
		<path class="st2" d="M108.7,127.7c0,8.9-4,16-8.9,16"/>
		<line class="st2" x1="97.9" y1="149.4" x2="112.9" y2="153.8"/>
		<circle class="st0" cx="103.5" cy="158.3" r="2.4"/>
		<line class="st2" x1="109.7" y1="122.9" x2="107.9" y2="127.8"/>
		<line class="st2" x1="104.3" y1="141.2" x2="115.8" y2="144.6"/>
		<line class="st2" x1="110.1" y1="142.9" x2="107" y2="152"/>
		<line class="st2" x1="104.8" y1="141.4" x2="102.1" y2="150.1"/>
	</g>
	<line class="st2" x1="119.5" y1="126.1" x2="117.8" y2="131.7"/>
</g>
<g id="accessrory-1">
	<path class="st0" d="M108.4,113.5l1.4,0.4c2.5,0.8,5.2-0.6,5.9-3.1l6-18.9c0.8-2.5-0.6-5.2-3.1-5.9l-1.4-0.4
		c-2.5-0.8-5.2,0.6-5.9,3.1l-6,18.9C104.6,110.1,105.9,112.7,108.4,113.5z"/>
	<line class="st2" x1="105.3" y1="108.4" x2="113.6" y2="99.9"/>
	<line class="st2" x1="111.8" y1="88" x2="113.6" y2="99.8"/>
	<line class="st2" x1="115.5" y1="111.3" x2="113.6" y2="99.9"/>
	<line class="st2" x1="121.5" y1="91" x2="113.6" y2="99.9"/>
	<circle class="st0" cx="113.5" cy="100" r="2.4"/>
</g>
<g id="body">
	<path class="st0" d="M197,164.1h-41.8c-11.9,0-21.5-9.6-21.5-21.5v-33.5c0-11.9,9.6-21.5,21.5-21.5H197c11.9,0,21.5,9.6,21.5,21.5
		v33.5C218.5,154.4,208.9,164.1,197,164.1z"/>
	<ellipse class="st0" cx="176.1" cy="109.2" rx="12.2" ry="7.7"/>
	<line class="st2" x1="133.7" y1="109.2" x2="163.9" y2="109.2"/>
	<line class="st2" x1="188.3" y1="109.2" x2="218.5" y2="109.2"/>
	<line class="st2" x1="168.6" y1="87.8" x2="168.6" y2="103.2"/>
	<line class="st2" x1="184.1" y1="87.5" x2="184.1" y2="103.6"/>
	<line class="st2" x1="133.7" y1="124" x2="218.5" y2="124"/>
	<line class="st2" x1="168.6" y1="115.2" x2="168.6" y2="124"/>
	<line class="st2" x1="184.1" y1="115" x2="184.1" y2="124"/>
	<line class="st2" x1="133.7" y1="134.5" x2="218.5" y2="134.5"/>
	<line class="st2" x1="134.7" y1="146.2" x2="217.8" y2="146.2"/>
	<line class="st2" x1="137.1" y1="97.5" x2="168.6" y2="97.5"/>
	<line class="st2" x1="184.1" y1="97.5" x2="215.1" y2="97.5"/>
	<line class="st2" x1="151.2" y1="124" x2="151.2" y2="134.5"/>
	<line class="st2" x1="176.2" y1="124" x2="176.2" y2="134.5"/>
	<line class="st2" x1="199.7" y1="124" x2="199.7" y2="134.5"/>
	<line class="st2" x1="160.4" y1="134.5" x2="160.4" y2="146.2"/>
	<line class="st2" x1="191.3" y1="134.5" x2="191.3" y2="146.2"/>
	<line class="st2" x1="154.5" y1="146.2" x2="154.5" y2="153.2"/>
	<line class="st2" x1="168.6" y1="146.2" x2="168.6" y2="153.2"/>
	<line class="st2" x1="184.1" y1="146.7" x2="184.1" y2="153.2"/>
	<line class="st2" x1="198.8" y1="146.7" x2="198.8" y2="153.2"/>
</g>
<g id="muoth">
	<path class="st1" d="M184.1,85.4H168c-1,0-1.9-0.8-1.9-1.8V83c0-1,0.8-1.8,1.9-1.8h16.1c1,0,1.9,0.8,1.9,1.8v0.6
		C186,84.6,185.2,85.4,184.1,85.4z"/>
	<line class="st2" x1="169.7" y1="81.2" x2="169.7" y2="85.4"/>
	<line class="st2" x1="173.9" y1="81.2" x2="173.9" y2="85.4"/>
	<line class="st2" x1="178.6" y1="81.2" x2="178.6" y2="85.4"/>
	<line class="st2" x1="182.8" y1="81.5" x2="182.8" y2="85.1"/>
</g>
<g id="foot">
	<line class="st2" x1="148.1" y1="160.9" x2="141.9" y2="160.9"/>
	<path class="st0" d="M200.6,179.3h-49.1c-5.8,0-10.4-4.7-10.4-10.4v-5.2c0-5.8,4.7-10.4,10.4-10.4h49.1c5.8,0,10.4,4.7,10.4,10.4
		v5.2C211.1,174.6,206.4,179.3,200.6,179.3z"/>
	
		<rect x="132.2" y="191.6" transform="matrix(0.1145 -0.9934 0.9934 0.1145 -61.9927 330.6107)" class="st3" width="44.6" height="16.9"/>
	<rect x="144.4" y="223" class="st0" width="14.7" height="40.8"/>
	<circle class="st0" cx="157.4" cy="177.6" r="10.5"/>
	<path class="st0" d="M158.4,272.8h-13.4c-2.2,0-3.9-1.8-3.9-3.9v-1.2c0-2.2,1.8-3.9,3.9-3.9h13.4c2.2,0,3.9,1.8,3.9,3.9v1.2
		C162.4,271.1,160.6,272.8,158.4,272.8z"/>
	<path class="st0" d="M156.5,228.7l-10.5-1.2c-2.2-0.2-3.7-2.2-3.5-4.4l0.1-1.2c0.2-2.2,2.2-3.7,4.4-3.5l10.5,1.2
		c2.2,0.2,3.7,2.2,3.5,4.4l-0.1,1.2C160.6,227.4,158.7,229,156.5,228.7z"/>
	<line class="st2" x1="148.1" y1="218.7" x2="147.1" y2="227.7"/>
	<line class="st2" x1="156.9" y1="219.6" x2="155.9" y2="228.6"/>
	<circle class="st0" cx="157.4" cy="177.6" r="8.7"/>
	<circle class="st0" cx="157.4" cy="177.6" r="2.4"/>
	<path class="st0" d="M156.5,272.8h-9.2c-2.2,0-3.9-1.8-3.9-3.9v-1.2c0-2.2,1.8-3.9,3.9-3.9h9.2c2.2,0,3.9,1.8,3.9,3.9v1.2
		C160.5,271.1,158.7,272.8,156.5,272.8z"/>
	<path class="st0" d="M154,272.8h-3.9c-2.2,0-3.9-1.8-3.9-3.9v-1.2c0-2.2,1.8-3.9,3.9-3.9h3.9c2.2,0,3.9,1.8,3.9,3.9v1.2
		C157.9,271.1,156.1,272.8,154,272.8z"/>
	<circle class="st0" cx="151.8" cy="234.9" r="2.4"/>
	<ellipse class="st0" cx="152" cy="256.8" rx="2.9" ry="3.2"/>
	<line class="st2" x1="151.5" y1="237.3" x2="151.8" y2="253.6"/>
	<line class="st2" x1="154.1" y1="235.1" x2="159.1" y2="235.8"/>
	<line class="st2" x1="149.4" y1="234.6" x2="144.4" y2="233.9"/>
	<line class="st2" x1="155" y1="257.1" x2="159.1" y2="257.1"/>
	<line class="st2" x1="149.4" y1="257.1" x2="144.4" y2="257.1"/>
	
		<rect x="191.3" y="177.8" transform="matrix(0.9934 -0.1145 0.1145 0.9934 -21.5957 24.186)" class="st3" width="16.9" height="44.6"/>
	<rect x="195.1" y="223" class="st0" width="14.7" height="40.8"/>
	<circle class="st0" cx="196.8" cy="177.6" r="10.5"/>
	<path class="st0" d="M195.8,272.8h13.4c2.2,0,3.9-1.8,3.9-3.9v-1.2c0-2.2-1.8-3.9-3.9-3.9h-13.4c-2.2,0-3.9,1.8-3.9,3.9v1.2
		C191.8,271.1,193.6,272.8,195.8,272.8z"/>
	<path class="st0" d="M197.7,228.7l10.5-1.2c2.2-0.2,3.7-2.2,3.5-4.4l-0.1-1.2c-0.2-2.2-2.2-3.7-4.4-3.5l-10.5,1.2
		c-2.2,0.2-3.7,2.2-3.5,4.4l0.1,1.2C193.6,227.4,195.5,229,197.7,228.7z"/>
	<line class="st2" x1="206.1" y1="218.7" x2="207.1" y2="227.7"/>
	<line class="st2" x1="197.2" y1="219.6" x2="198.3" y2="228.6"/>
	<circle class="st0" cx="196.8" cy="177.6" r="8.7"/>
	<circle class="st0" cx="196.8" cy="177.6" r="2.4"/>
	<path class="st0" d="M197.7,272.8h9.2c2.2,0,3.9-1.8,3.9-3.9v-1.2c0-2.2-1.8-3.9-3.9-3.9h-9.2c-2.2,0-3.9,1.8-3.9,3.9v1.2
		C193.7,271.1,195.5,272.8,197.7,272.8z"/>
	<path class="st0" d="M200.2,272.8h3.9c2.2,0,3.9-1.8,3.9-3.9v-1.2c0-2.2-1.8-3.9-3.9-3.9h-3.9c-2.2,0-3.9,1.8-3.9,3.9v1.2
		C196.3,271.1,198.1,272.8,200.2,272.8z"/>
	<circle class="st0" cx="202.4" cy="234.9" r="2.4"/>
	<ellipse class="st0" cx="202.2" cy="256.8" rx="2.9" ry="3.2"/>
	<line class="st2" x1="202.7" y1="237.3" x2="202.4" y2="253.6"/>
	<line class="st2" x1="200" y1="235.1" x2="195.1" y2="235.8"/>
	<line class="st2" x1="204.8" y1="234.6" x2="209.8" y2="233.9"/>
	<line class="st2" x1="199.2" y1="257.1" x2="195.1" y2="257.1"/>
	<line class="st2" x1="204.8" y1="257.1" x2="209.8" y2="257.1"/>
	<path class="st2" d="M148,161.4c0,2.2,4.2,3.9,9.4,3.9s9.4-1.8,9.4-3.9c0-0.2,0-0.4-0.1-0.5h-18.5C148,161.1,148,161.2,148,161.4z"
		/>
	<path class="st2" d="M186.7,160.9c-0.1,0.2-0.1,0.4-0.1,0.6c0,2.1,4.2,3.9,9.4,3.9s9.4-1.7,9.4-3.9c0-0.2-0.1-0.4-0.1-0.6H186.7z"
		/>
	<line class="st2" x1="141.2" y1="160.9" x2="210.7" y2="160.9"/>
	<circle class="st0" cx="155.2" cy="193.4" r="2.4"/>
	<circle class="st0" cx="199" cy="193.4" r="2.4"/>
	<circle class="st0" cx="200.9" cy="210.4" r="2.4"/>
	<circle class="st0" cx="153.3" cy="210.3" r="2.4"/>
	<line class="st2" x1="154.9" y1="195.8" x2="153.4" y2="207.9"/>
	<line class="st2" x1="199" y1="195.8" x2="200.5" y2="208"/>
</g>
</svg>
