<?xml version="1.0" encoding="utf-8"?>
<!-- Generator: Adobe Illustrator 25.3.1, SVG Export Plug-In . SVG Version: 6.00 Build 0)  -->
<svg version="1.1" id="Layer_1" xmlns="http://www.w3.org/2000/svg" xmlns:xlink="http://www.w3.org/1999/xlink" x="0px" y="0px"
	 viewBox="0 0 350 350" style="enable-background:new 0 0 350 350;" xml:space="preserve">
<style type="text/css">
	.st0{display:none;}
	.st1{display:inline;fill:#002C4E;}
	.st2{fill:#003B23;}
	.st3{fill:#888888;stroke:#000000;stroke-miterlimit:10;}
	.st4{display:inline;fill:#363636;stroke:#000000;stroke-miterlimit:10;}
	.st5{fill:#006B77;stroke:#000000;stroke-miterlimit:10;}
	.st6{display:inline;fill:#BDBDBD;stroke:#000000;stroke-miterlimit:10;}
	.st7{display:inline;}
	.st8{fill:#3D5AA9;stroke:#000000;stroke-miterlimit:10;}
	.st9{fill:#BDBDBD;stroke:#000000;stroke-miterlimit:10;}
	.st10{fill:#434343;stroke:#000000;stroke-miterlimit:10;}
	.st11{fill:#6E6E6E;stroke:#000000;stroke-miterlimit:10;}
	.st12{display:inline;fill:#6E6E6E;stroke:#000000;stroke-miterlimit:10;}
	.st13{fill:#003541;stroke:#000000;stroke-miterlimit:10;}
	.st14{fill:#080808;stroke:#000000;stroke-miterlimit:10;}
	.st15{display:inline;fill:#006B77;stroke:#000000;stroke-miterlimit:10;}
	.st16{display:inline;fill:#003541;stroke:#000000;stroke-miterlimit:10;}
	.st17{display:inline;fill:#D4DE27;stroke:#0B100C;stroke-miterlimit:10;}
	.st18{fill:#363636;stroke:#000000;stroke-miterlimit:10;}
	.st19{display:inline;fill:#D04B00;stroke:#0B100C;stroke-miterlimit:10;}
	.st20{display:inline;fill:#A20900;stroke:#0B100C;stroke-miterlimit:10;}
	.st21{display:inline;fill:#6C0900;stroke:#0B100C;stroke-miterlimit:10;}
	.st22{fill:#00535E;stroke:#0B100C;stroke-miterlimit:10;}
	.st23{fill:#00616F;stroke:#000000;stroke-miterlimit:10;}
	.st24{fill:#113600;stroke:#0B100C;stroke-miterlimit:10;}
	.st25{display:inline;fill:#0092C0;stroke:#000000;stroke-miterlimit:10;}
	.st26{fill:#00A6B8;stroke:#0B100C;stroke-miterlimit:10;}
	.st27{fill:#FF0007;stroke:#000000;stroke-miterlimit:10;}
	.st28{display:inline;fill:#E12B00;stroke:#020200;stroke-miterlimit:10;}
</style>
<g id="background_x5F_1" class="st0">
	<path class="st1" d="M158.4,0v165.7c0,14.5-11.8,26.3-26.3,26.3h-12.8c-14.5,0-26.3-11.8-26.3-26.3V0H158.4z"/>
	<path class="st1" d="M223.7,26.3v186.8c0,14.5-11.8,26.3-26.3,26.3h-12.7c-14.5,0-26.3-11.8-26.3-26.3V26.3
		c0-14.5,11.8-26.3,26.3-26.3h12.7C211.9,0,223.7,11.8,223.7,26.3z"/>
	<path class="st1" d="M158.4,217.6v131.7H93V217.6c0-14.5,11.8-26.3,26.3-26.3h12.8C146.6,191.3,158.4,203.1,158.4,217.6z"/>
	<path class="st1" d="M223.5,265.7V350h-65.3v-84.3c0-14.5,11.8-26.3,26.3-26.3h12.7C211.7,239.4,223.5,251.2,223.5,265.7z"/>
	<path class="st1" d="M289,0v165.7c0,14.5-11.8,26.3-26.3,26.3h-12.8c-14.5,0-26.3-11.8-26.3-26.3V0H289z"/>
	<path class="st1" d="M288.8,218.3V350h-65.3V218.3c0-14.5,11.8-26.3,26.3-26.3h12.7C277.1,192,288.8,203.8,288.8,218.3z"/>
	<path class="st1" d="M350,11.8v215.9c-4.7,7.1-12.8,11.8-21.9,11.8h-12.8c-14.5,0-26.3-11.8-26.3-26.3V26.3
		C289,11.8,300.8,0,315.3,0h12.8C337.2,0,345.3,4.7,350,11.8z"/>
	<path class="st1" d="M350,251.2V350h-61v-84.3c0-14.5,11.8-26.3,26.3-26.3h12.8C337.2,239.4,345.3,244.1,350,251.2z"/>
	<path class="st1" d="M93,26.3v186.8c0,14.5-11.8,26.3-26.3,26.3H54c-14.5,0-26.3-11.8-26.3-26.3V26.3C27.7,11.8,39.5,0,54,0h12.8
		C81.3,0,93,11.8,93,26.3z"/>
	<path class="st1" d="M93,265v84.3H27.7V265c0-14.5,11.8-26.3,26.3-26.3h12.8C81.3,238.7,93,250.5,93,265z"/>
	<path class="st1" d="M27.7,0v167.3c0,14.5-11.8,26.3-26.3,26.3H0V0H27.7z"/>
	<path class="st1" d="M27.7,219.4v130.1H0V193.1h1.4C15.9,193.1,27.7,204.9,27.7,219.4z"/>
</g>
<g id="background_x5F_2">
	<polygon class="st2" points="68.5,16.1 40.8,54.2 0,49.8 0,0.4 61.6,0.4 	"/>
	<polygon class="st2" points="173.9,150.9 127.1,146 107.9,103 135.6,64.9 182.4,69.8 201.6,112.9 	"/>
	<polygon class="st2" points="107.2,102.4 60.3,97.5 41.2,54.4 68.9,16.3 115.8,21.3 134.9,64.3 	"/>
	<polygon class="st2" points="98.4,183.8 51.6,178.9 32.5,135.8 60.2,97.8 107,102.7 126.1,145.8 	"/>
	<polygon class="st2" points="90.4,265.7 43.5,260.7 24.4,217.7 52.1,179.6 99,184.6 118.1,227.6 	"/>
	<polygon class="st2" points="164.7,232.1 117.9,227.1 98.8,184.1 126.5,146 173.3,151 192.4,194 	"/>
	<polygon class="st2" points="239.3,198.5 192.4,193.6 173.3,150.5 201,112.5 247.9,117.4 267,160.4 	"/>
	<polygon class="st2" points="248,117.6 201.1,112.7 182,69.6 209.7,31.6 256.5,36.5 275.7,79.6 	"/>
	<polygon class="st2" points="210.2,21.3 182.5,59.4 135.6,54.4 116.5,11.4 124.5,0.4 200.9,0.4 	"/>
	<polygon class="st2" points="50,96.9 25.9,130 0,127.2 0,56.1 33.4,59.6 	"/>
	<polygon class="st2" points="51.4,179.1 23.7,217.2 0,214.7 0,132.6 32.3,136.1 	"/>
	<polygon class="st2" points="350,114.8 350,134.4 327.7,165 280.9,160.1 261.8,117.1 289.5,79 336.3,83.9 	"/>
	<polygon class="st2" points="350,13 350,46.3 331.5,71.8 284.7,66.8 265.5,23.8 282.5,0.4 344.4,0.4 	"/>
	<polygon class="st2" points="308.4,255.5 261.5,250.6 242.4,207.6 270.1,169.5 317,174.4 336.1,217.5 	"/>
	<polygon class="st2" points="155.8,313.3 108.9,308.3 89.8,265.3 117.5,227.2 164.4,232.2 183.5,275.2 	"/>
	<polygon class="st2" points="230.1,279.7 183.3,274.7 164.2,231.7 191.9,193.6 238.7,198.5 257.8,241.6 	"/>
	<polygon class="st2" points="39.7,264.6 11.9,302.7 0,301.4 0,219.4 20.5,221.6 	"/>
	<polygon class="st2" points="107.4,320.3 85.5,350.4 31.5,350.4 13.7,310.4 41.4,272.3 88.3,277.2 	"/>
	<polygon class="st2" points="253.2,331.3 239.4,350.4 172.5,350.4 159.6,321.4 187.3,283.3 234.1,288.3 	"/>
	<polygon class="st2" points="166.8,350.4 92,350.4 110.7,324.7 157.6,329.6 	"/>
	<polygon class="st2" points="308.4,343.4 261.5,338.5 242.4,295.4 270.1,257.4 317,262.3 336.1,305.4 	"/>
	<polygon class="st2" points="350,150.4 350,222.1 348.4,221.9 329.3,178.9 	"/>
	<polygon class="st2" points="350,222.8 350,304.9 339.6,303.8 320.5,260.7 348.2,222.7 	"/>
	<polygon class="st2" points="26,350.4 0,350.4 0,308.9 7.9,309.7 	"/>
	<polygon class="st2" points="350,309.4 350,350.4 314.2,350.4 312.5,346.4 340.2,308.3 	"/>
</g>
<g id="ears_x5F_2">
	<polygon class="st3" points="154.8,89.4 146.9,94.9 146.9,105.9 154.8,111.3 155,111.2 155,89.5 	"/>
	<polygon class="st3" points="215.3,94.9 207.6,89.5 207.6,111.2 215.3,105.9 	"/>
</g>
<g id="ears_x5F_1" class="st0">
	<path class="st4" d="M149.8,107.6h-2.7c-2.8,0-5.1-2.3-5.1-5.1v-6.4c0-2.8,2.3-5.1,5.1-5.1h2.7c2.8,0,5.1,2.3,5.1,5.1v6.4
		C154.9,105.3,152.5,107.6,149.8,107.6z"/>
	<path class="st4" d="M215.4,107.6h-2.7c-2.8,0-5.1-2.3-5.1-5.1v-6.4c0-2.8,2.3-5.1,5.1-5.1h2.7c2.8,0,5.1,2.3,5.1,5.1v6.4
		C220.6,105.3,218.2,107.6,215.4,107.6z"/>
</g>
<g id="head_x5F_2">
	<path class="st5" d="M207.6,136h-52.7V86.7c0-5.3,4.3-9.6,9.6-9.6h33.2c5.5,0,9.9,4.4,9.9,9.9V136z"/>
	<path class="st5" d="M198.9,77.1h-5.3c-0.9,0-1.6-0.7-1.6-1.6l0,0c0-0.9,0.7-1.6,1.6-1.6h5.3c0.9,0,1.6,0.7,1.6,1.6l0,0
		C200.5,76.4,199.8,77.1,198.9,77.1z"/>
	<path class="st5" d="M169.5,77.1h-3.2l0,0V61.7c0-0.9,0.7-1.6,1.6-1.6l0,0c0.9,0,1.6,0.7,1.6,1.6L169.5,77.1L169.5,77.1z"/>
</g>
<g id="head_x5F_1" class="st0">
	<polygon class="st4" points="178.3,72.1 179.7,53.6 182.3,53.6 183.7,72.1 181,72 179.9,72 	"/>
	<ellipse class="st6" cx="181" cy="51.1" rx="3.1" ry="2.7"/>
	<g class="st7">
		<path class="st5" d="M213.3,103.8c0,7.3-2.4,14.1-6.5,19.5l0,0V136h-51.3v-12.7h0.1c-4-5.4-6.5-12.2-6.5-19.5
			c0-1.3,0.1-2.5,0.2-3.6l0,0c1.9-15.8,15.5-28.1,32-28.1c12.6,0,23.4,7.1,28.7,17.5c1.6,3.3,2.8,6.9,3.2,10.8c0,0.1,0,0.2,0,0.2
			C213.2,101.4,213.5,102.7,213.3,103.8z"/>
	</g>
</g>
<g id="foot_x5F_2">
	<path class="st5" d="M182.2,242.5L182.2,242.5c-6.5,0-11.8-5.3-11.8-11.8v-11.1c0-6.5,5.3-11.8,11.8-11.8l0,0
		c6.5,0,11.8,5.3,11.8,11.8v11.1C194,237.2,188.7,242.5,182.2,242.5z"/>
	<path class="st8" d="M162.5,228.7c0,2.6-0.9,5-2.3,6.9c-0.2,0-0.4,0-0.6,0h-17.5c-1.5-1.9-2.3-4.3-2.3-6.9
		c0-6.3,5.1-11.4,11.4-11.4C157.4,217.3,162.5,222.4,162.5,228.7z"/>
	<path class="st9" d="M164.6,228.7c0,2.7-0.8,5.1-2.1,7.2c-0.8-0.2-1.5-0.3-2.3-0.3c-0.2,0-0.4,0-0.6,0H141c-0.5,0-1,0-1.5,0.1
		c-1.2-2-1.9-4.4-1.9-7c0-7.5,6-13.5,13.5-13.5C158.5,215.2,164.6,221.2,164.6,228.7z"/>
	<path class="st5" d="M170.3,247.4v11.1c0,3.9-1.7,7.4-4.4,9.5c-3.5-2.9-8.8-4.8-14.7-4.8s-11.1,1.8-14.7,4.8
		c-2.6-2.2-4.3-5.6-4.3-9.5v-11.1c0-6,4.1-11,9.3-11.8c0.4-0.1,0.9-0.1,1.3-0.1h16.7c0.2,0,0.4,0,0.5,0c0.7,0,1.4,0.2,2.1,0.3
		C166.9,237.2,170.3,241.9,170.3,247.4z"/>
	<path class="st10" d="M171.4,277.2c0,7.5-9.1,13.7-20.3,13.7c-11.2,0-20.3-6.1-20.3-13.7c0-3.4,1.9-6.5,4.9-8.9
		c3.7-2.9,9.2-4.8,15.3-4.8s11.6,1.8,15.3,4.8C169.5,270.7,171.4,273.8,171.4,277.2z"/>
	<circle class="st11" cx="151.1" cy="251.8" r="3.4"/>
	<line class="st8" x1="132.2" y1="251.8" x2="147.8" y2="251.8"/>
	<line class="st8" x1="154.5" y1="251.8" x2="170" y2="251.8"/>
	<line class="st8" x1="133.1" y1="242.6" x2="169.7" y2="242.6"/>
	<line class="st8" x1="132.1" y1="259.9" x2="169.8" y2="259.9"/>
	<line class="st8" x1="144.5" y1="235.6" x2="144.5" y2="242.6"/>
	<line class="st8" x1="160" y1="242.6" x2="160" y2="251.8"/>
	<line class="st8" x1="142.9" y1="251.8" x2="142.9" y2="259.9"/>
	<line class="st8" x1="160" y1="259.9" x2="160" y2="264.7"/>
	<path class="st8" d="M224.5,229.8c0,2.6-0.9,5-2.3,6.9c-0.2,0-0.4,0-0.6,0h-17.5c-1.5-1.9-2.3-4.3-2.3-6.9
		c0-6.3,5.1-11.4,11.4-11.4C219.4,218.4,224.5,223.5,224.5,229.8z"/>
	<path class="st9" d="M226.7,229.8c0,2.7-0.8,5.1-2.1,7.2c-0.8-0.2-1.5-0.3-2.3-0.3c-0.2,0-0.4,0-0.6,0h-18.6c-0.5,0-1,0-1.5,0.1
		c-1.2-2-1.9-4.4-1.9-7c0-7.5,6-13.5,13.5-13.5C220.6,216.3,226.7,222.3,226.7,229.8z"/>
	<path class="st5" d="M232.3,248.5v11.1c0,3.9-1.7,7.4-4.4,9.5c-3.5-2.9-8.8-4.8-14.7-4.8s-11.1,1.8-14.7,4.8
		c-2.6-2.2-4.3-5.6-4.3-9.5v-11.1c0-6,4.1-11,9.3-11.8c0.4-0.1,0.9-0.1,1.3-0.1h16.9c0.2,0,0.4,0,0.5,0c0.7,0,1.4,0.2,2.1,0.3
		C228.9,238.3,232.3,243,232.3,248.5z"/>
	<path class="st10" d="M232.4,278.4c0,7.5-8.5,13.7-19.1,13.7c-10.5,0-19.1-6.1-19.1-13.7c0-3.4,1.8-6.5,4.6-8.9
		c3.5-2.9,8.7-4.8,14.4-4.8c5.7,0,10.9,1.8,14.4,4.8C230.6,271.9,232.4,275,232.4,278.4z"/>
	<circle class="st11" cx="213.2" cy="252.9" r="3.4"/>
	<line class="st8" x1="194.3" y1="252.9" x2="209.8" y2="252.9"/>
	<line class="st8" x1="216.6" y1="252.9" x2="232.1" y2="252.9"/>
	<line class="st8" x1="195.2" y1="243.8" x2="231.7" y2="243.8"/>
	<line class="st8" x1="194.2" y1="261" x2="231.9" y2="261"/>
	<line class="st8" x1="206.5" y1="236.7" x2="206.5" y2="243.8"/>
	<line class="st8" x1="222.1" y1="243.8" x2="222.1" y2="252.9"/>
	<line class="st8" x1="205" y1="252.9" x2="205" y2="261"/>
	<line class="st8" x1="222.1" y1="261" x2="222.1" y2="265.9"/>
	<circle class="st11" cx="213" cy="229.1" r="4.8"/>
	<circle class="st11" cx="151.1" cy="229.1" r="4.8"/>
</g>
<g id="foot_x5F_1" class="st0">
	<ellipse class="st12" cx="180.8" cy="257.2" rx="23.6" ry="18.6"/>
	<g class="st7">
		<ellipse class="st13" cx="181.2" cy="223.6" rx="44.6" ry="16.3"/>
		<ellipse class="st13" cx="180.8" cy="229.7" rx="38.2" ry="13.9"/>
		<ellipse class="st13" cx="180.4" cy="235.8" rx="33.4" ry="12.2"/>
		<ellipse class="st13" cx="180.8" cy="241.8" rx="29.9" ry="9.2"/>
		<ellipse class="st13" cx="180.8" cy="248" rx="25.2" ry="9.2"/>
	</g>
</g>
<g id="hand_x5F_2">
	<path class="st5" d="M261.8,131.3h4c3.9,0,7.1,3.2,7.1,7.1v4.8c-3.3,0-6,2.7-6,6s2.7,6,6,6v4.8c0,3.9-3.2,7.1-7.1,7.1h-4
		c-3.9,0-7.1-3.2-7.1-7.1v-21.5C254.7,134.4,257.9,131.3,261.8,131.3z"/>
	<path class="st9" d="M266.9,149.1c0-3.3,2.7-6,6-6v12C269.6,155.1,266.9,152.4,266.9,149.1z"/>
	<path class="st13" d="M251.5,186.7h3.3c5,0,9.1-4.1,9.1-9.1v-17.9c0-5-4.1-9.1-9.1-9.1h-3.3c-5,0-9.1,4.1-9.1,9.1v17.9
		C242.4,182.6,246.5,186.7,251.5,186.7z"/>
	<path class="st9" d="M222.8,155.1l0.6,4c0.6,3.9,4.3,6.5,8.1,5.9l11.5-1.9c3.9-0.6,6.5-4.3,5.9-8.1l-0.6-4
		c-0.6-3.9-4.3-6.5-8.1-5.9l-11.5,1.9C224.8,147.6,222.2,151.2,222.8,155.1z"/>
	<circle class="st3" cx="234.6" cy="155" r="6.4"/>
	<path class="st5" d="M247,175.3h4c3.9,0,7.1-3.2,7.1-7.1v-39.3c0-3.9-3.2-7.1-7.1-7.1h-4c-3.9,0-7.1,3.2-7.1,7.1v39.3
		C239.9,172.2,243.1,175.3,247,175.3z"/>
	<path class="st5" d="M252.7,170.8h4c3.9,0,7.1-3.2,7.1-7.1v-30.3c0-3.9-3.2-7.1-7.1-7.1h-4c-3.9,0-7.1,3.2-7.1,7.1v30.3
		C245.6,167.6,248.7,170.8,252.7,170.8z"/>
	<path class="st3" d="M251.1,193.5h4c3.9,0,7.1-3.2,7.1-7.1l0,0c0-3.9-3.2-7.1-7.1-7.1h-4c-3.9,0-7.1,3.2-7.1,7.1l0,0
		C244.1,190.3,247.2,193.5,251.1,193.5z"/>
	<path class="st5" d="M250.4,227.9h5.6c3.9,0,7.1-3.2,7.1-7.1v-30.3c0-3.9-3.2-7.1-7.1-7.1h-5.6c-3.9,0-7.1,3.2-7.1,7.1v30.3
		C243.3,224.7,246.5,227.9,250.4,227.9z"/>
	<ellipse class="st11" cx="253.5" cy="225.4" rx="11.1" ry="9.3"/>
	<line class="st8" x1="256.7" y1="179.5" x2="256.7" y2="183.5"/>
	<line class="st8" x1="249.7" y1="179.5" x2="249.6" y2="183.5"/>
	<path class="st9" d="M243.6,223.3c0,4,4.1,7.2,10.2,7.2s9.6-3.2,9.6-7.2s-3.4-7.2-9.6-7.2C247.7,216.1,243.6,219.3,243.6,223.3z"/>
	<circle class="st3" cx="254.7" cy="133.2" r="1.2"/>
	<circle class="st3" cx="254.7" cy="162.4" r="1.2"/>
	<line class="st8" x1="263.3" y1="133.2" x2="255.9" y2="133.2"/>
	<line class="st8" x1="253.2" y1="133.2" x2="245.6" y2="133.2"/>
	<line class="st8" x1="263.8" y1="162.4" x2="255.9" y2="162.4"/>
	<line class="st8" x1="253.5" y1="162.4" x2="245.6" y2="162.4"/>
	<line class="st8" x1="233" y1="146.3" x2="233.4" y2="148.7"/>
	<line class="st8" x1="254.7" y1="134.4" x2="254.7" y2="144.9"/>
	<line class="st8" x1="254.7" y1="147.3" x2="254.7" y2="161.4"/>
	<path class="st9" d="M268.1,149.1c0-2.6,2.1-4.8,4.8-4.8v9.5C270.3,153.9,268.1,151.7,268.1,149.1z"/>
	<path class="st14" d="M271.2,149.1c0-0.9,0.7-1.7,1.7-1.7v3.3C272,150.8,271.2,150,271.2,149.1z"/>
	<line class="st8" x1="272.6" y1="142.9" x2="263.8" y2="133.2"/>
	<line class="st8" x1="272.9" y1="155.1" x2="263.8" y2="162.4"/>
	<line class="st8" x1="271.2" y1="133.8" x2="267.8" y2="137.5"/>
	<line class="st8" x1="271.2" y1="164.4" x2="267.2" y2="159.7"/>
	<line class="st8" x1="266.9" y1="149.1" x2="263.8" y2="149.1"/>
	<circle class="st9" cx="254.7" cy="146.3" r="2.8"/>
	<circle class="st14" cx="254.7" cy="146.3" r="1.3"/>
	<path class="st5" d="M99.4,131.3h-4c-3.9,0-7.1,3.2-7.1,7.1v4.8c3.3,0,6,2.7,6,6s-2.7,6-6,6v4.8c0,3.9,3.2,7.1,7.1,7.1h4
		c3.9,0,7.1-3.2,7.1-7.1v-21.5C106.5,134.5,103.3,131.3,99.4,131.3z"/>
	<path class="st9" d="M94.3,149.1c0-3.3-2.7-6-6-6v12C91.6,155.1,94.3,152.4,94.3,149.1z"/>
	<path class="st13" d="M109.7,186.7h-3.3c-5,0-9.1-4.1-9.1-9.1v-17.9c0-5,4.1-9.1,9.1-9.1h3.3c5,0,9.1,4.1,9.1,9.1v17.9
		C118.8,182.6,114.7,186.7,109.7,186.7z"/>
	<path class="st9" d="M138.4,155.1l-0.6,4c-0.6,3.9-4.3,6.5-8.1,5.9l-11.5-1.9c-3.9-0.6-6.5-4.3-5.9-8.1l0.6-4
		c0.6-3.9,4.3-6.5,8.1-5.9l11.5,1.9C136.4,147.6,139,151.2,138.4,155.1z"/>
	<circle class="st3" cx="126.6" cy="155" r="6.4"/>
	<path class="st5" d="M114.2,175.4h-4c-3.9,0-7.1-3.2-7.1-7.1V129c0-3.9,3.2-7.1,7.1-7.1h4c3.9,0,7.1,3.2,7.1,7.1v39.3
		C121.3,172.2,118.1,175.4,114.2,175.4z"/>
	<path class="st5" d="M108.5,170.8h-4c-3.9,0-7.1-3.2-7.1-7.1v-30.3c0-3.9,3.2-7.1,7.1-7.1h4c3.9,0,7.1,3.2,7.1,7.1v30.3
		C115.6,167.7,112.5,170.8,108.5,170.8z"/>
	<path class="st3" d="M110.1,193.5h-4c-3.9,0-7.1-3.2-7.1-7.1l0,0c0-3.9,3.2-7.1,7.1-7.1h4c3.9,0,7.1,3.2,7.1,7.1l0,0
		C117.1,190.3,114,193.5,110.1,193.5z"/>
	<path class="st5" d="M110.8,227.9h-5.6c-3.9,0-7.1-3.2-7.1-7.1v-30.3c0-3.9,3.2-7.1,7.1-7.1h5.6c3.9,0,7.1,3.2,7.1,7.1v30.3
		C117.9,224.7,114.7,227.9,110.8,227.9z"/>
	<ellipse class="st11" cx="107.7" cy="225.4" rx="11.1" ry="9.3"/>
	<line class="st8" x1="104.5" y1="179.5" x2="104.5" y2="183.5"/>
	<line class="st8" x1="111.5" y1="179.5" x2="111.6" y2="183.5"/>
	<path class="st9" d="M117.6,223.3c0,4-4.1,7.2-10.2,7.2s-9.6-3.2-9.6-7.2s3.4-7.2,9.6-7.2C113.5,216.1,117.6,219.3,117.6,223.3z"/>
	<circle class="st3" cx="106.5" cy="133.2" r="1.2"/>
	<circle class="st3" cx="106.5" cy="162.4" r="1.2"/>
	<line class="st8" x1="97.9" y1="133.2" x2="105.3" y2="133.2"/>
	<line class="st8" x1="108" y1="133.2" x2="115.6" y2="133.2"/>
	<line class="st8" x1="97.4" y1="162.4" x2="105.3" y2="162.4"/>
	<line class="st8" x1="107.7" y1="162.4" x2="115.6" y2="162.4"/>
	<line class="st8" x1="128.2" y1="146.3" x2="127.8" y2="148.7"/>
	<line class="st8" x1="106.5" y1="134.4" x2="106.5" y2="144.9"/>
	<line class="st8" x1="106.5" y1="147.3" x2="106.5" y2="161.5"/>
	<path class="st9" d="M93.1,149.1c0-2.6-2.1-4.8-4.8-4.8v9.5C90.9,153.9,93.1,151.7,93.1,149.1z"/>
	<path class="st14" d="M90,149.1c0-0.9-0.7-1.7-1.7-1.7v3.3C89.2,150.8,90,150,90,149.1z"/>
	<line class="st8" x1="88.6" y1="142.9" x2="97.4" y2="133.2"/>
	<line class="st8" x1="88.3" y1="155.1" x2="97.4" y2="162.4"/>
	<line class="st8" x1="90" y1="133.8" x2="93.4" y2="137.6"/>
	<line class="st8" x1="90" y1="164.4" x2="94" y2="159.7"/>
	<line class="st8" x1="94.3" y1="149.1" x2="97.4" y2="149.1"/>
	<circle class="st9" cx="106.5" cy="146.3" r="2.8"/>
	<circle class="st14" cx="106.5" cy="146.3" r="1.3"/>
</g>
<g id="hand_x5F_1" class="st0">
	<path class="st15" d="M108.2,264.3L108.2,264.3c6.5,0,11.7-5.3,11.7-11.7v-36.3c0-6.5-5.3-11.7-11.7-11.7l0,0
		c-6.5,0-11.7,5.3-11.7,11.7v36.3C96.5,259.1,101.7,264.3,108.2,264.3z"/>
	<ellipse class="st6" cx="122.1" cy="159.9" rx="11.8" ry="10"/>
	<ellipse class="st6" cx="238.7" cy="159.9" rx="11.8" ry="10"/>
	<ellipse class="st4" cx="238.7" cy="159.7" rx="7.6" ry="6.4"/>
	<path class="st16" d="M264.3,181.5v-37.6c0-6.5-5.3-11.7-11.7-11.7l0,0c-6.5,0-11.7,5.3-11.7,11.7v37.6c0,6.5,5.3,11.7,11.7,11.7
		l0,0C259,193.2,264.3,187.9,264.3,181.5z"/>
	<path class="st15" d="M264.3,252.4v-36.3c0-6.5-5.3-11.7-11.7-11.7l0,0c-6.5,0-11.7,5.3-11.7,11.7v36.3c0,6.5,5.3,11.7,11.7,11.7
		l0,0C259,264.3,264.3,259,264.3,252.4z"/>
	
		<ellipse transform="matrix(0.8112 -0.5847 0.5847 0.8112 -68.2483 185.0461)" class="st6" cx="252.5" cy="198.2" rx="11.7" ry="11.7"/>
	<path class="st15" d="M252.5,251.3c6.5,0,11.7-2.2,11.7-5.1"/>
	<path class="st15" d="M252.5,251.3c-6.5,0-11.7-2.2-11.7-5.1"/>
	<path class="st16" d="M252.5,139.7c6.5,0,11.7,2.7,11.7,6.2"/>
	<path class="st16" d="M252.5,139.7c-6.5,0-11.7,2.7-11.7,6.2"/>
	<ellipse class="st12" cx="252.5" cy="198.2" rx="8.9" ry="8.9"/>
	<circle class="st4" cx="252.5" cy="198.1" r="3.3"/>
	<circle class="st6" cx="252.5" cy="152" r="3.3"/>
	<circle class="st6" cx="252.5" cy="173.4" r="3.3"/>
	<line class="st17" x1="255.9" y1="152" x2="264.3" y2="152"/>
	<line class="st17" x1="240.7" y1="152" x2="249.1" y2="152"/>
	<line class="st17" x1="255.9" y1="173.4" x2="264.3" y2="173.4"/>
	<line class="st17" x1="240.7" y1="173.4" x2="249.1" y2="173.4"/>
	<line class="st17" x1="252.5" y1="169.9" x2="252.5" y2="155.4"/>
	<line class="st17" x1="258.3" y1="262.7" x2="258.3" y2="251.3"/>
	<line class="st17" x1="246.6" y1="262.7" x2="246.6" y2="250.7"/>
	<line class="st17" x1="252.5" y1="264.3" x2="252.5" y2="251.3"/>
	<line class="st17" x1="240.7" y1="216.2" x2="264.3" y2="216.2"/>
	<ellipse class="st4" cx="122.1" cy="159.7" rx="7.6" ry="6.4"/>
	<path class="st16" d="M108.2,193.3L108.2,193.3c6.5,0,11.7-5.3,11.7-11.7V144c0-6.5-5.3-11.7-11.7-11.7l0,0
		c-6.5,0-11.7,5.3-11.7,11.7v37.6C96.5,188,101.7,193.3,108.2,193.3z"/>
	<circle class="st6" cx="108.2" cy="198.1" r="11.7"/>
	<path class="st15" d="M96.5,246.4c0,2.8,5.3,5.1,11.7,5.1"/>
	<path class="st15" d="M119.9,246.4c0,2.8-5.3,5.1-11.7,5.1"/>
	<path class="st16" d="M96.5,146c0-3.4,5.3-6.2,11.7-6.2"/>
	<path class="st16" d="M119.9,146c0-3.4-5.3-6.2-11.7-6.2"/>
	<circle class="st12" cx="108.2" cy="198.1" r="8.9"/>
	<circle class="st4" cx="108.2" cy="198.1" r="3.3"/>
	<circle class="st6" cx="108.2" cy="152" r="3.3"/>
	<circle class="st6" cx="108.2" cy="173.4" r="3.3"/>
	<line class="st17" x1="96.5" y1="152" x2="104.9" y2="152"/>
	<line class="st17" x1="111.6" y1="152" x2="119.9" y2="152"/>
	<line class="st17" x1="96.5" y1="173.4" x2="104.9" y2="173.4"/>
	<line class="st17" x1="111.6" y1="173.4" x2="119.9" y2="173.4"/>
	<line class="st17" x1="108.2" y1="155.5" x2="108.2" y2="170"/>
	<line class="st17" x1="102.3" y1="251.3" x2="102.3" y2="262.7"/>
	<line class="st17" x1="114.2" y1="250.7" x2="114.2" y2="262.7"/>
	<line class="st17" x1="108.2" y1="251.3" x2="108.2" y2="264.3"/>
	<line class="st17" x1="96.5" y1="216.3" x2="119.9" y2="216.3"/>
</g>
<g id="body_x5F_2">
	<path class="st5" d="M220.4,225.3h-79.9c-7.7,0-13.9-6.2-13.9-13.9v-61.6c0-7.7,6.2-13.9,13.9-13.9h79.9c7.7,0,13.9,6.2,13.9,13.9
		v61.5C234.2,219,228,225.3,220.4,225.3z"/>
	<polygon class="st9" points="140.9,146.7 150.6,141 160.1,146.7 160.1,157.7 150.6,163.4 140.9,157.7 	"/>
	<circle class="st18" cx="150.6" cy="152.2" r="4.2"/>
	<path class="st11" d="M199.3,147.7l-60.1,34.7c-1.4,0.9-3.2,0.3-3.9-1.1l0,0c-0.9-1.4-0.3-3.2,1.1-3.9l60.1-34.7
		c1.4-0.9,3.2-0.3,3.9,1.1l0,0C201.1,145.2,200.7,146.9,199.3,147.7z"/>
	<path class="st11" d="M224.7,147.1l-88.6,51.2c-1.4,0.9-3.2,0.3-3.9-1.1l0,0c-0.9-1.4-0.3-3.2,1.1-3.9l88.6-51.2
		c1.4-0.9,3.2-0.3,3.9,1.1l0,0C226.7,144.5,226.1,146.2,224.7,147.1z"/>
	<path class="st11" d="M226.6,159.8l-90.9,52.5c-1.4,0.9-3.2,0.3-3.9-1.1l0,0c-0.9-1.4-0.3-3.2,1.1-3.9l90.9-52.5
		c1.4-0.9,3.2-0.3,3.9,1.1l0,0C228.4,157.1,227.9,158.9,226.6,159.8z"/>
	<path class="st11" d="M228.2,172.2l-72.1,41.6c-1.4,0.9-3.2,0.3-3.9-1.1l0,0c-0.9-1.4-0.3-3.2,1.1-3.9l72.1-41.6
		c1.4-0.9,3.2-0.3,3.9,1.1l0,0C230.1,169.6,229.5,171.4,228.2,172.2z"/>
	<path class="st11" d="M229.2,184.1l-38.8,22.4c-1.4,0.9-3.2,0.3-3.9-1.1l0,0c-0.9-1.4-0.3-3.2,1.1-3.9l38.8-22.4
		c1.4-0.9,3.2-0.3,3.9,1.1l0,0C231,181.4,230.6,183.2,229.2,184.1z"/>
	<path class="st11" d="M229.3,196.3l-27.4,15.8c-1.4,0.9-3.2,0.3-3.9-1.1l0,0c-0.9-1.4-0.3-3.2,1.1-3.9l27.4-15.8
		c1.4-0.9,3.2-0.3,3.9,1.1l0,0C231.1,193.7,230.7,195.5,229.3,196.3z"/>
	<polygon class="st9" points="217.3,208.3 223.5,204.6 229.5,208.3 229.5,215.3 223.5,218.8 217.3,215.3 	"/>
	<circle class="st18" cx="223.5" cy="211.7" r="3.2"/>
</g>
<g id="body_x5F_1" class="st0">
	<path class="st15" d="M209,229.7h-56.6c-15.7,0-28.4-12.7-28.4-28.4V164c0-15.7,12.7-28.4,28.4-28.4H209
		c15.7,0,28.4,12.7,28.4,28.4v37.4C237.4,217,224.7,229.7,209,229.7z"/>
	<path class="st15" d="M127.7,215.4c0-10.4,23.7-18.9,52.9-18.9"/>
	<path class="st15" d="M235.6,211.2c0-8.1-24.5-14.7-54.9-14.7"/>
	<path class="st19" d="M214.3,159.7h-66c-2.6,0-4.6-2.1-4.6-4.6v-3.2c0-2.6,2.1-4.6,4.6-4.6h66c2.6,0,4.6,2.1,4.6,4.6v3.2
		C219,157.6,216.9,159.7,214.3,159.7z"/>
	<path class="st20" d="M211.8,176.1h-61.2c-2.6,0-4.6-2.1-4.6-4.6v-3.2c0-2.6,2.1-4.6,4.6-4.6h61.2c2.6,0,4.6,2.1,4.6,4.6v3.2
		C216.5,174.1,214.4,176.1,211.8,176.1z"/>
	<path class="st21" d="M208.9,192.6H155c-2.6,0-4.6-2.1-4.6-4.6v-3.2c0-2.6,2.1-4.6,4.6-4.6h54c2.6,0,4.6,2.1,4.6,4.6v3.2
		C213.5,190.5,211.5,192.6,208.9,192.6z"/>
</g>
<g id="accessory_x5F_1">
	<path class="st13" d="M94.7,247h-3.9c-4.1,0-7.5-3.3-7.5-7.5v-16.6c0-4.1,3.3-7.5,7.5-7.5h3.9c4.1,0,7.5,3.3,7.5,7.5v16.6
		C102.1,243.7,98.7,247,94.7,247z"/>
	<path class="st22" d="M86.7,261h1c1.1,0,2-0.9,2-2v-20.7c0-1.1-0.9-2-2-2h-1c-1.1,0-2,0.9-2,2V259C84.8,260.2,85.7,261,86.7,261z"
		/>
	<ellipse class="st23" cx="87.3" cy="237.4" rx="3.3" ry="4.1"/>
</g>
<g id="accessory_x5F_2">
	<path class="st24" d="M213.4,129.6c0,1.7-0.7,3.3-1.9,4.4s-2.7,1.9-4.4,1.9h-52.8c-3.4,0-6.3-2.8-6.3-6.3c0-1.7,0.7-3.3,1.9-4.4
		s2.7-1.8,4.4-1.8h52.8C210.6,123.3,213.4,126.1,213.4,129.6z"/>
	<line class="st24" x1="155.7" y1="123.3" x2="155.7" y2="136"/>
	<line class="st24" x1="163.4" y1="123.3" x2="163.4" y2="136"/>
	<line class="st24" x1="171" y1="123.3" x2="171" y2="136"/>
	<line class="st24" x1="178.7" y1="123.3" x2="178.7" y2="136"/>
	<line class="st24" x1="184.3" y1="123.4" x2="184.3" y2="135.9"/>
	<line class="st24" x1="192.7" y1="123.3" x2="192.7" y2="136"/>
	<line class="st24" x1="199.8" y1="123.3" x2="199.8" y2="136"/>
	<line class="st24" x1="206.9" y1="123.8" x2="206.9" y2="135.4"/>
</g>
<g id="mouth_x5F_2" class="st0">
	<path class="st25" d="M196.2,119h-28.1c-2,0-3.6-1.6-3.6-3.6l0,0c0-2,1.6-3.6,3.6-3.6h28.1c2,0,3.6,1.6,3.6,3.6l0,0
		C199.8,117.4,198.2,119,196.2,119z"/>
	<line class="st25" x1="164.5" y1="115.4" x2="199.5" y2="115.4"/>
</g>
<g id="mouth_x5F_1">
	<ellipse class="st26" cx="182" cy="115" rx="17.8" ry="3.2"/>
	<path class="st26" d="M174.8,112.7c0,3,0.2,5.3,0.5,5.3"/>
	<path class="st26" d="M189.4,112.3c0,2.8-0.2,5.3-0.6,5.3"/>
	<path class="st26" d="M169.8,113.3c0,2.3,0.5,4.2,1.2,4.2"/>
	<path class="st26" d="M193.8,112.6c0,2.7-0.5,4.9-1.1,4.9"/>
</g>
<g id="eyes_x5F_2">
	<circle class="st27" cx="170.6" cy="96.3" r="8.1"/>
	<circle class="st27" cx="196.2" cy="85.9" r="3"/>
	<circle class="st27" cx="196.2" cy="95.2" r="3"/>
	<circle class="st27" cx="196.2" cy="104.4" r="3"/>
</g>
<g id="eyes_x5F_1" class="st0">
	<path class="st28" d="M189.6,95.5c0,2.4-2.5,4.4-6.2,5.1h-3.8c-3.4-0.7-6-2.6-6-5.1c0-2.9,3.6-5.2,8-5.2h0.1c2.3,0,4.1,0.6,5.6,1.5
		C188.7,92.8,189.6,94,189.6,95.5z"/>
</g>
</svg>
