<?xml version="1.0" encoding="utf-8"?>
<!-- Generator: Adobe Illustrator 25.3.1, SVG Export Plug-In . SVG Version: 6.00 Build 0)  -->
<svg version="1.1" id="Layer_1" xmlns="http://www.w3.org/2000/svg" xmlns:xlink="http://www.w3.org/1999/xlink" x="0px" y="0px"
	 viewBox="0 0 350 350" style="enable-background:new 0 0 350 350;" xml:space="preserve">
<style type="text/css">
	.st0{fill:none;stroke:#231F20;stroke-miterlimit:10;}
	.st1{fill:none;stroke:#000000;stroke-miterlimit:10;}
</style>
<g id="background">
	<path class="st0" d="M158.4,0v165.7c0,14.5-11.8,26.3-26.3,26.3h-12.8c-14.5,0-26.3-11.8-26.3-26.3V0H158.4z"/>
	<path class="st0" d="M223.7,26.3v186.8c0,14.5-11.8,26.3-26.3,26.3h-12.7c-14.5,0-26.3-11.8-26.3-26.3V26.3
		c0-14.5,11.8-26.3,26.3-26.3h12.7C211.9,0,223.7,11.8,223.7,26.3z"/>
	<path class="st0" d="M158.4,217.6v131.7H93V217.6c0-14.5,11.8-26.3,26.3-26.3h12.8C146.6,191.3,158.4,203.1,158.4,217.6z"/>
	<path class="st0" d="M223.5,265.7V350h-65.3v-84.3c0-14.5,11.8-26.3,26.3-26.3h12.7C211.7,239.4,223.5,251.2,223.5,265.7z"/>
	<path class="st0" d="M289,0v165.7c0,14.5-11.8,26.3-26.3,26.3h-12.8c-14.5,0-26.3-11.8-26.3-26.3V0H289z"/>
	<path class="st0" d="M288.8,218.3V350h-65.3V218.3c0-14.5,11.8-26.3,26.3-26.3h12.7C277.1,192,288.8,203.8,288.8,218.3z"/>
	<path class="st0" d="M350,11.8v215.9c-4.7,7.1-12.8,11.8-21.9,11.8h-12.8c-14.5,0-26.3-11.8-26.3-26.3V26.3
		C289,11.8,300.8,0,315.3,0h12.8C337.2,0,345.3,4.7,350,11.8z"/>
	<path class="st0" d="M350,251.2V350h-61v-84.3c0-14.5,11.8-26.3,26.3-26.3h12.8C337.2,239.4,345.3,244.1,350,251.2z"/>
	<path class="st0" d="M93,26.3v186.8c0,14.5-11.8,26.3-26.3,26.3H54c-14.5,0-26.3-11.8-26.3-26.3V26.3C27.7,11.8,39.5,0,54,0h12.8
		C81.3,0,93,11.8,93,26.3z"/>
	<path class="st0" d="M93,265v84.3H27.7V265c0-14.5,11.8-26.3,26.3-26.3h12.8C81.3,238.7,93,250.5,93,265z"/>
	<path class="st0" d="M27.7,0v167.3c0,14.5-11.8,26.3-26.3,26.3H0V0H27.7z"/>
	<path class="st0" d="M27.7,219.4v130.1H0V193.1h1.4C15.9,193.1,27.7,204.9,27.7,219.4z"/>
</g>
<g id="foot">
	<ellipse class="st1" cx="180.8" cy="257.2" rx="23.6" ry="18.6"/>
	<g>
		<ellipse class="st1" cx="181.2" cy="223.6" rx="44.6" ry="16.3"/>
		<ellipse class="st1" cx="180.8" cy="229.7" rx="38.2" ry="13.9"/>
		<ellipse class="st1" cx="180.4" cy="235.8" rx="33.4" ry="12.2"/>
		<ellipse class="st1" cx="180.8" cy="241.8" rx="29.9" ry="9.2"/>
		<ellipse class="st1" cx="180.8" cy="248" rx="25.2" ry="9.2"/>
	</g>
</g>
<g id="hand">
	<path class="st1" d="M108.2,264.3L108.2,264.3c6.5,0,11.7-5.3,11.7-11.7v-36.3c0-6.5-5.3-11.7-11.7-11.7l0,0
		c-6.5,0-11.7,5.3-11.7,11.7v36.3C96.5,259.1,101.7,264.3,108.2,264.3z"/>
	<g>
		<ellipse class="st1" cx="238.7" cy="159.9" rx="11.8" ry="10"/>
		<ellipse class="st1" cx="238.7" cy="159.7" rx="7.6" ry="6.4"/>
		<path class="st1" d="M264.3,181.5v-37.6c0-6.5-5.3-11.7-11.7-11.7l0,0c-6.5,0-11.7,5.3-11.7,11.7v37.6c0,6.5,5.3,11.7,11.7,11.7
			l0,0C259,193.2,264.3,187.9,264.3,181.5z"/>
		<path class="st1" d="M264.3,252.4v-36.3c0-6.5-5.3-11.7-11.7-11.7l0,0c-6.5,0-11.7,5.3-11.7,11.7v36.3c0,6.5,5.3,11.7,11.7,11.7
			l0,0C259,264.3,264.3,259,264.3,252.4z"/>
		
			<ellipse transform="matrix(0.1602 -0.9871 0.9871 0.1602 16.4962 415.6889)" class="st1" cx="252.5" cy="198.1" rx="11.7" ry="11.7"/>
		<path class="st1" d="M252.5,251.3c6.5,0,11.7-2.2,11.7-5.1"/>
		<path class="st1" d="M252.5,251.3c-6.5,0-11.7-2.2-11.7-5.1"/>
		<path class="st1" d="M252.5,139.7c6.5,0,11.7,2.7,11.7,6.2"/>
		<path class="st1" d="M252.5,139.7c-6.5,0-11.7,2.7-11.7,6.2"/>
		
			<ellipse transform="matrix(0.1602 -0.9871 0.9871 0.1602 16.4962 415.6889)" class="st1" cx="252.5" cy="198.1" rx="8.9" ry="8.9"/>
		<circle class="st1" cx="252.5" cy="198.1" r="3.3"/>
		<circle class="st1" cx="252.5" cy="152" r="3.3"/>
		<circle class="st1" cx="252.5" cy="173.4" r="3.3"/>
		<line class="st1" x1="255.9" y1="152" x2="264.3" y2="152"/>
		<line class="st1" x1="240.7" y1="152" x2="249.1" y2="152"/>
		<line class="st1" x1="255.9" y1="173.4" x2="264.3" y2="173.4"/>
		<line class="st1" x1="240.7" y1="173.4" x2="249.1" y2="173.4"/>
		<line class="st1" x1="252.5" y1="169.9" x2="252.5" y2="155.4"/>
		<line class="st1" x1="258.3" y1="262.7" x2="258.3" y2="251.3"/>
		<line class="st1" x1="246.6" y1="262.7" x2="246.6" y2="250.7"/>
		<line class="st1" x1="252.5" y1="264.3" x2="252.5" y2="251.3"/>
		<line class="st1" x1="240.7" y1="216.2" x2="264.3" y2="216.2"/>
	</g>
	<ellipse class="st1" cx="122.1" cy="159.9" rx="11.8" ry="10"/>
	<ellipse class="st1" cx="122.1" cy="159.7" rx="7.6" ry="6.4"/>
	<path class="st1" d="M108.2,193.3L108.2,193.3c6.5,0,11.7-5.3,11.7-11.7V144c0-6.5-5.3-11.7-11.7-11.7l0,0
		c-6.5,0-11.7,5.3-11.7,11.7v37.6C96.5,188,101.7,193.3,108.2,193.3z"/>
	<circle class="st1" cx="108.2" cy="198.1" r="11.7"/>
	<path class="st1" d="M96.5,246.4c0,2.8,5.3,5.1,11.7,5.1"/>
	<path class="st1" d="M119.9,246.4c0,2.8-5.3,5.1-11.7,5.1"/>
	<path class="st1" d="M96.5,146c0-3.4,5.3-6.2,11.7-6.2"/>
	<path class="st1" d="M119.9,146c0-3.4-5.3-6.2-11.7-6.2"/>
	<circle class="st1" cx="108.2" cy="198.1" r="8.9"/>
	<circle class="st1" cx="108.2" cy="198.1" r="3.3"/>
	<circle class="st1" cx="108.2" cy="152" r="3.3"/>
	<circle class="st1" cx="108.2" cy="173.4" r="3.3"/>
	<line class="st1" x1="96.5" y1="152" x2="104.9" y2="152"/>
	<line class="st1" x1="111.6" y1="152" x2="119.9" y2="152"/>
	<line class="st1" x1="96.5" y1="173.4" x2="104.9" y2="173.4"/>
	<line class="st1" x1="111.6" y1="173.4" x2="119.9" y2="173.4"/>
	<line class="st1" x1="108.2" y1="155.5" x2="108.2" y2="170"/>
	<line class="st1" x1="102.3" y1="251.3" x2="102.3" y2="262.7"/>
	<line class="st1" x1="114.2" y1="250.7" x2="114.2" y2="262.7"/>
	<line class="st1" x1="108.2" y1="251.3" x2="108.2" y2="264.3"/>
	<line class="st1" x1="96.5" y1="216.3" x2="119.9" y2="216.3"/>
</g>
<g id="body">
	<path class="st1" d="M209,229.7h-56.6c-15.7,0-28.4-12.7-28.4-28.4V164c0-15.7,12.7-28.4,28.4-28.4H209c15.7,0,28.4,12.7,28.4,28.4
		v37.4C237.4,217,224.7,229.7,209,229.7z"/>
	<path class="st1" d="M127.7,215.4c0-10.4,23.7-18.9,52.9-18.9"/>
	<path class="st1" d="M235.6,211.2c0-8.1-24.5-14.7-54.9-14.7"/>
	<path class="st1" d="M214.3,159.7h-66c-2.6,0-4.6-2.1-4.6-4.6v-3.2c0-2.6,2.1-4.6,4.6-4.6h66c2.6,0,4.6,2.1,4.6,4.6v3.2
		C219,157.6,216.9,159.7,214.3,159.7z"/>
	<path class="st1" d="M211.8,176.1h-61.2c-2.6,0-4.6-2.1-4.6-4.6v-3.2c0-2.6,2.1-4.6,4.6-4.6h61.2c2.6,0,4.6,2.1,4.6,4.6v3.2
		C216.5,174.1,214.4,176.1,211.8,176.1z"/>
	<path class="st1" d="M208.3,192.6h-53.9c-2.6,0-4.6-2.1-4.6-4.6v-3.2c0-2.6,2.1-4.6,4.6-4.6h54c2.6,0,4.6,2.1,4.6,4.6v3.2
		C212.9,190.5,210.9,192.6,208.3,192.6z"/>
</g>
<g id="accessory-2">
	<path class="st1" d="M213.4,129.6c0,1.7-0.7,3.3-1.9,4.4s-2.7,1.9-4.4,1.9h-52.8c-3.4,0-6.3-2.8-6.3-6.3c0-1.7,0.7-3.3,1.9-4.4
		s2.7-1.8,4.4-1.8h52.8C210.6,123.3,213.4,126.1,213.4,129.6z"/>
	<line class="st1" x1="155.7" y1="123.3" x2="155.7" y2="136"/>
	<line class="st1" x1="163.4" y1="123.3" x2="163.4" y2="136"/>
	<line class="st1" x1="171" y1="123.3" x2="171" y2="136"/>
	<line class="st1" x1="178.7" y1="123.3" x2="178.7" y2="136"/>
	<line class="st1" x1="184.3" y1="123.4" x2="184.3" y2="135.9"/>
	<line class="st1" x1="192.7" y1="123.3" x2="192.7" y2="136"/>
	<line class="st1" x1="199.8" y1="123.3" x2="199.8" y2="136"/>
	<line class="st1" x1="206.9" y1="123.8" x2="206.9" y2="135.4"/>
</g>
<g id="ear">
	<path class="st1" d="M149.8,107.6h-2.7c-2.8,0-5.1-2.3-5.1-5.1v-6.4c0-2.8,2.3-5.1,5.1-5.1h2.7c2.8,0,5.1,2.3,5.1,5.1v6.4
		C154.9,105.3,152.5,107.6,149.8,107.6z"/>
	<path class="st1" d="M215.4,107.6h-2.7c-2.8,0-5.1-2.3-5.1-5.1v-6.4c0-2.8,2.3-5.1,5.1-5.1h2.7c2.8,0,5.1,2.3,5.1,5.1v6.4
		C220.6,105.3,218.2,107.6,215.4,107.6z"/>
</g>
<g id="eye">
	<path class="st1" d="M189.6,95.5c0-1.5-0.9-2.7-2.3-3.7l0,0c0,1.6-1.4,3-3,3s-3-1.4-3-3c0-0.6,0.1-1.1,0.4-1.5h-0.1
		c-4.4,0-8,2.3-8,5.2c0,2.5,2.6,4.4,6,5.1h3.8C187.1,99.9,189.6,97.9,189.6,95.5z"/>
	<path class="st1" d="M184.3,94.7c1.6,0,3-1.4,3-3l0,0c-1.5-0.9-3.3-1.5-5.6-1.5c-0.2,0.5-0.4,1-0.4,1.5
		C181.2,93.4,182.6,94.7,184.3,94.7z"/>
</g>
<g id="head">
	<path class="st1" d="M213.4,100.8l-29.9-0.1c-0.6,0.1-1.2,0.1-1.9,0.1c-0.7,0-1.4-0.1-2-0.1l-30.3-0.1c-0.1,1.1-0.2,2.3-0.2,3.6
		c0,7.3,2.5,14.1,6.5,19.5h51.2c4.1-5.4,6.5-12.2,6.5-19.5C213.5,102.9,213.5,101.8,213.4,100.8z"/>
	<path class="st1" d="M173.6,95.5c0-2.8,3.6-5.2,8.1-5.2h0.1c2.2,0,4.1,0.6,5.6,1.5c1.5,1,2.4,2.2,2.4,3.7c0,2.5-2.6,4.4-6.1,5.1
		l29.8,0.1c-0.4-4.1-1.6-7.9-3.3-11.4l-57.6,0.6l57.6-0.6c-5.3-10.4-16.1-17.5-28.7-17.5c-16.6,0-30.3,12.5-32,28.5l30.4,0.1
		C176.2,99.9,173.6,97.9,173.6,95.5z"/>
	<polygon class="st1" points="178.9,71.8 180.3,53.3 182.9,53.3 184.3,71.8 181.6,71.7 180.5,71.7 	"/>
	<ellipse class="st1" cx="181.3" cy="50.8" rx="3.1" ry="2.7"/>
</g>
<g id="muoth">
	<ellipse class="st1" cx="182" cy="115" rx="17.8" ry="3.2"/>
	<path class="st1" d="M174.8,112.7c0,3,0.2,5.3,0.5,5.3"/>
	<path class="st1" d="M189.4,112.3c0,2.8-0.2,5.3-0.6,5.3"/>
	<path class="st1" d="M169.8,113.3c0,2.3,0.5,4.2,1.2,4.2"/>
	<path class="st1" d="M193.8,112.6c0,2.7-0.5,4.9-1.1,4.9"/>
</g>
<g id="accessory-1">
	<path class="st1" d="M94.7,247h-3.9c-4.1,0-7.5-3.3-7.5-7.5v-16.6c0-4.1,3.3-7.5,7.5-7.5h3.9c4.1,0,7.5,3.3,7.5,7.5v16.6
		C102.1,243.7,98.7,247,94.7,247z"/>
	<path class="st1" d="M86.7,261h1c1.1,0,2-0.9,2-2v-20.7c0-1.1-0.9-2-2-2h-1c-1.1,0-2,0.9-2,2v20.7C84.8,260.2,85.7,261,86.7,261z"
		/>
	<ellipse class="st1" cx="87.3" cy="237.4" rx="3.3" ry="4.1"/>
</g>
</svg>
