<?xml version="1.0" encoding="utf-8"?>
<!-- Generator: Adobe Illustrator 25.3.1, SVG Export Plug-In . SVG Version: 6.00 Build 0)  -->
<svg version="1.1" id="Layer_1" xmlns="http://www.w3.org/2000/svg" xmlns:xlink="http://www.w3.org/1999/xlink" x="0px" y="0px"
	 viewBox="0 0 350 350" style="enable-background:new 0 0 350 350;" xml:space="preserve">
<style type="text/css">
	.st0{fill:none;stroke:#010101;stroke-miterlimit:10;}
</style>
<g id="body_x5F_2">
	<path class="st0" d="M194.8,191.5h-75c-7.2,0-13-5.8-13-13v-57.8c0-7.2,5.8-13,13-13h75c7.2,0,13,5.8,13,13v57.7
		C207.8,185.6,202,191.5,194.8,191.5z"/>
	<polygon class="st0" points="120.2,117.7 129.3,112.4 138.3,117.7 138.3,128.1 129.3,133.4 120.2,128.1 	"/>
	<circle class="st0" cx="129.3" cy="122.9" r="3.9"/>
	<path class="st0" d="M175,118.7l-56.4,32.6c-1.3,0.8-3,0.3-3.7-1l0,0c-0.8-1.3-0.3-3,1-3.7l56.4-32.6c1.3-0.8,3-0.3,3.7,1l0,0
		C176.7,116.3,176.3,117.9,175,118.7z"/>
	<path class="st0" d="M198.9,118.1l-83.1,48c-1.3,0.8-3,0.3-3.7-1l0,0c-0.8-1.3-0.3-3,1-3.7l83.1-48c1.3-0.8,3-0.3,3.7,1l0,0
		C200.7,115.7,200.2,117.3,198.9,118.1z"/>
	<path class="st0" d="M200.6,130l-85.3,49.3c-1.3,0.8-3,0.3-3.7-1l0,0c-0.8-1.3-0.3-3,1-3.7l85.3-49.3c1.3-0.8,3-0.3,3.7,1l0,0
		C202.3,127.5,201.9,129.2,200.6,130z"/>
	<path class="st0" d="M202.1,141.7l-67.6,39c-1.3,0.8-3,0.3-3.7-1l0,0c-0.8-1.3-0.3-3,1-3.7l67.6-39c1.3-0.8,3-0.3,3.7,1l0,0
		C203.9,139.2,203.4,140.9,202.1,141.7z"/>
	<path class="st0" d="M203.1,152.8l-36.4,21c-1.3,0.8-3,0.3-3.7-1l0,0c-0.8-1.3-0.3-3,1-3.7l36.4-21c1.3-0.8,3-0.3,3.7,1l0,0
		C204.8,150.3,204.4,152,203.1,152.8z"/>
	<path class="st0" d="M203.2,164.3l-25.7,14.8c-1.3,0.8-3,0.3-3.7-1l0,0c-0.8-1.3-0.3-3,1-3.7l25.7-14.8c1.3-0.8,3-0.3,3.7,1l0,0
		C204.9,161.8,204.5,163.5,203.2,164.3z"/>
	<polygon class="st0" points="191.9,175.5 197.7,172.1 203.4,175.5 203.4,182.1 197.7,185.4 191.9,182.1 	"/>
	<circle class="st0" cx="197.7" cy="178.7" r="3"/>
</g>
</svg>
