<?xml version="1.0" encoding="utf-8"?>
<!-- Generator: Adobe Illustrator 24.0.0, SVG Export Plug-In . SVG Version: 6.00 Build 0)  -->
<svg version="1.1" id="Layer_1" xmlns="http://www.w3.org/2000/svg" xmlns:xlink="http://www.w3.org/1999/xlink" x="0px" y="0px"
	 viewBox="0 0 350 350" style="enable-background:new 0 0 350 350;" xml:space="preserve">
<style type="text/css">
	.st0{fill:none;stroke:#010101;stroke-miterlimit:10;}
</style>
<path class="st0" d="M193.04,205.14h-36.26c-10.01,0-18.13-8.12-18.13-18.13v-23.9c0-10.01,8.12-18.13,18.13-18.13h36.25
	c10.01,0,18.13,8.12,18.13,18.13v23.9C211.16,197.02,203.05,205.14,193.04,205.14z"/>
<path class="st0" d="M141.02,195.96c0-6.65,15.16-12.04,33.89-12.04"/>
<path class="st0" d="M210.05,193.28c0-5.17-15.72-9.36-35.14-9.36"/>
<path class="st0" d="M195.62,160.28h-40.68c-2.06,0-3.74-1.67-3.74-3.74v-0.47c0-2.06,1.67-3.74,3.74-3.74h40.68
	c2.06,0,3.74,1.67,3.74,3.74v0.47C199.36,158.61,197.69,160.28,195.62,160.28z"/>
<path class="st0" d="M194.06,170.84H156.5c-2.06,0-3.74-1.67-3.74-3.74v-0.47c0-2.06,1.67-3.74,3.74-3.74h37.56
	c2.06,0,3.74,1.67,3.74,3.74v0.47C197.79,169.17,196.12,170.84,194.06,170.84z"/>
<path class="st0" d="M191.76,181.4H158.8c-2.06,0-3.74-1.67-3.74-3.74v-0.47c0-2.06,1.67-3.74,3.74-3.74h32.96
	c2.06,0,3.74,1.67,3.74,3.74v0.47C195.5,179.73,193.82,181.4,191.76,181.4z"/>
</svg>
