<?xml version="1.0" encoding="utf-8"?>
<!-- Generator: Adobe Illustrator 24.0.0, SVG Export Plug-In . SVG Version: 6.00 Build 0)  -->
<svg version="1.1" id="Layer_1" xmlns="http://www.w3.org/2000/svg" xmlns:xlink="http://www.w3.org/1999/xlink" x="0px" y="0px"
	 viewBox="0 0 350 350" style="enable-background:new 0 0 350 350;" xml:space="preserve">
<style type="text/css">
	.st0{fill:none;stroke:#010101;stroke-miterlimit:10;}
</style>
<path class="st0" d="M180.03,175.11c0-0.92-0.58-1.76-1.52-2.36c0,0.01,0,0.01,0,0.02c0,1.06-0.86,1.92-1.92,1.92
	s-1.91-0.86-1.91-1.92c0-0.36,0.1-0.69,0.27-0.98h-0.05c-2.83,0-5.13,1.49-5.13,3.32c0,1.56,1.65,2.85,3.87,3.22l2.45,0.01
	C178.35,177.99,180.03,176.68,180.03,175.11z"/>
<path class="st0" d="M176.59,174.69c1.06,0,1.92-0.86,1.92-1.92c0-0.01,0-0.01,0-0.02c-0.92-0.59-2.17-0.95-3.56-0.96
	c-0.17,0.29-0.27,0.62-0.27,0.98C174.68,173.83,175.53,174.69,176.59,174.69z"/>
</svg>
