<?xml version="1.0" encoding="utf-8"?>
<!-- Generator: Adobe Illustrator 24.0.0, SVG Export Plug-In . SVG Version: 6.00 Build 0)  -->
<svg version="1.1" id="Layer_1" xmlns="http://www.w3.org/2000/svg" xmlns:xlink="http://www.w3.org/1999/xlink" x="0px" y="0px"
	 viewBox="0 0 350 350" style="enable-background:new 0 0 350 350;" xml:space="preserve">
<style type="text/css">
	.st0{fill:none;}
	.st1{fill:none;stroke:#000000;stroke-miterlimit:10;}
</style>
<g>
	<rect y="-0.34" class="st0" width="350" height="350"/>
	<path class="st1" d="M158.37,0.34v165.7c0,14.52-11.77,26.29-26.29,26.29h-12.75c-14.53,0-26.3-11.77-26.3-26.29V0.34H158.37z"/>
	<path class="st1" d="M223.71,26.63v186.82c0,14.52-11.77,26.29-26.3,26.29h-12.74c-14.53,0-26.3-11.77-26.3-26.29V26.63
		c0-14.52,11.77-26.29,26.3-26.29h12.74C211.94,0.34,223.71,12.11,223.71,26.63z"/>
	<path class="st1" d="M158.37,217.95v131.71H93.03V217.95c0-14.53,11.77-26.3,26.3-26.3h12.75
		C146.6,191.65,158.37,203.42,158.37,217.95z"/>
	<path class="st1" d="M223.71,266.04v84.3h-65.34v-84.3c0-14.53,11.77-26.3,26.3-26.3h12.74
		C211.94,239.74,223.71,251.51,223.71,266.04z"/>
	<path class="st1" d="M289.05,0.34v165.7c0,14.52-11.77,26.29-26.3,26.29H250c-14.52,0-26.29-11.77-26.29-26.29V0.34H289.05z"/>
	<path class="st1" d="M289.05,218.63v131.71h-65.34V218.63c0-14.53,11.77-26.3,26.29-26.3h12.75
		C277.28,192.33,289.05,204.1,289.05,218.63z"/>
	<path class="st1" d="M350,12.1v215.88c-4.7,7.09-12.76,11.76-21.91,11.76h-12.75c-14.52,0-26.29-11.77-26.29-26.29V26.63
		c0-14.52,11.77-26.29,26.29-26.29h12.75C337.24,0.34,345.3,5.01,350,12.1z"/>
	<path class="st1" d="M350,251.5v98.84h-60.95v-84.3c0-14.53,11.77-26.3,26.29-26.3h12.75C337.24,239.74,345.3,244.41,350,251.5z"/>
	<path class="st1" d="M93.03,26.63v186.82c0,14.52-11.77,26.29-26.29,26.29H53.99c-14.52,0-26.3-11.77-26.3-26.29V26.63
		c0-14.52,11.78-26.29,26.3-26.29h12.75C81.26,0.34,93.03,12.11,93.03,26.63z"/>
	<path class="st1" d="M93.03,265.36v84.3H27.69v-84.3c0-14.53,11.78-26.3,26.3-26.3h12.75C81.26,239.06,93.03,250.83,93.03,265.36z"
		/>
	<path class="st1" d="M27.69,0.34v167.27c0,14.52-11.77,26.3-26.29,26.3H0V0.34H27.69z"/>
	<path class="st1" d="M27.69,219.52v130.14H0V193.23h1.4C15.92,193.23,27.69,205,27.69,219.52z"/>
</g>
</svg>
