<?xml version="1.0" encoding="utf-8"?>
<!-- Generator: Adobe Illustrator 24.0.0, SVG Export Plug-In . SVG Version: 6.00 Build 0)  -->
<svg version="1.1" id="Layer_1" xmlns="http://www.w3.org/2000/svg" xmlns:xlink="http://www.w3.org/1999/xlink" x="0px" y="0px"
	 viewBox="0 0 350 350" style="enable-background:new 0 0 350 350;" xml:space="preserve">
<style type="text/css">
	.st0{fill:none;stroke:#010101;stroke-miterlimit:10;}
</style>
<ellipse class="st0" cx="212.25" cy="150.54" rx="7.55" ry="6.43"/>
<ellipse class="st0" cx="212.25" cy="150.37" rx="4.86" ry="4.14"/>
<path class="st0" d="M228.59,164.37v-24.08c0-4.15-3.36-7.52-7.52-7.52l0,0c-4.15,0-7.52,3.36-7.52,7.52v24.08
	c0,4.15,3.36,7.52,7.52,7.52l0,0C225.22,171.89,228.59,168.52,228.59,164.37z"/>
<path class="st0" d="M228.59,209.79v-23.23c0-4.15-3.36-7.52-7.52-7.52l0,0c-4.15,0-7.52,3.36-7.52,7.52v23.23
	c0,4.15,3.36,7.52,7.52,7.52l0,0C225.22,217.31,228.59,213.95,228.59,209.79z"/>
<circle class="st0" cx="221.07" cy="175" r="7.52"/>
<path class="st0" d="M221.07,209.05c4.15,0,7.52-1.45,7.52-3.23"/>
<path class="st0" d="M221.06,209.05c-4.15,0-7.52-1.45-7.52-3.23"/>
<path class="st0" d="M221.07,137.64c4.15,0,7.52,1.77,7.52,3.96"/>
<path class="st0" d="M221.06,137.64c-4.15,0-7.52,1.77-7.52,3.96"/>
<circle class="st0" cx="221.07" cy="175" r="5.72"/>
<circle class="st0" cx="221.07" cy="175" r="2.16"/>
<circle class="st0" cx="221.07" cy="145.51" r="2.16"/>
<circle class="st0" cx="221.07" cy="159.13" r="2.16"/>
<line class="st0" x1="223.23" y1="145.51" x2="228.59" y2="145.51"/>
<line class="st0" x1="213.54" y1="145.51" x2="218.91" y2="145.51"/>
<line class="st0" x1="223.23" y1="159.13" x2="228.59" y2="159.13"/>
<line class="st0" x1="213.54" y1="159.13" x2="218.91" y2="159.13"/>
<line class="st0" x1="221.07" y1="156.96" x2="221.07" y2="147.67"/>
<line class="st0" x1="224.83" y1="216.31" x2="224.83" y2="209.05"/>
<line class="st0" x1="217.31" y1="216.3" x2="217.31" y2="208.62"/>
<line class="st0" x1="221.07" y1="217.31" x2="221.07" y2="209.05"/>
<line class="st0" x1="213.54" y1="186.56" x2="228.59" y2="186.56"/>
<ellipse class="st0" cx="137.56" cy="150.58" rx="7.55" ry="6.43"/>
<ellipse class="st0" cx="137.56" cy="150.41" rx="4.86" ry="4.14"/>
<path class="st0" d="M128.74,171.93L128.74,171.93c4.16,0,7.52-3.37,7.52-7.52v-24.08c0-4.16-3.37-7.52-7.52-7.52l0,0
	c-4.16,0-7.52,3.37-7.52,7.52v24.08C121.22,168.56,124.59,171.93,128.74,171.93z"/>
<path class="st0" d="M128.74,217.35L128.74,217.35c4.16,0,7.52-3.37,7.52-7.52V186.6c0-4.16-3.37-7.52-7.52-7.52l0,0
	c-4.16,0-7.52,3.37-7.52,7.52v23.23C121.22,213.99,124.59,217.35,128.74,217.35z"/>
<circle class="st0" cx="128.74" cy="175.04" r="7.52"/>
<path class="st0" d="M121.22,205.86c0,1.78,3.37,3.23,7.52,3.23"/>
<path class="st0" d="M136.27,205.86c0,1.78-3.37,3.23-7.52,3.23"/>
<path class="st0" d="M121.22,141.64c0-2.19,3.37-3.96,7.52-3.96"/>
<path class="st0" d="M136.27,141.64c0-2.19-3.37-3.96-7.52-3.96"/>
<circle class="st0" cx="128.74" cy="175.04" r="5.72"/>
<circle class="st0" cx="128.74" cy="175.04" r="2.16"/>
<circle class="st0" cx="128.74" cy="145.55" r="2.16"/>
<circle class="st0" cx="128.74" cy="159.17" r="2.16"/>
<line class="st0" x1="121.22" y1="145.55" x2="126.58" y2="145.55"/>
<line class="st0" x1="130.9" y1="145.55" x2="136.27" y2="145.55"/>
<line class="st0" x1="121.22" y1="159.17" x2="126.58" y2="159.17"/>
<line class="st0" x1="130.9" y1="159.17" x2="136.27" y2="159.17"/>
<line class="st0" x1="128.74" y1="147.71" x2="128.74" y2="157"/>
<line class="st0" x1="124.98" y1="209.09" x2="124.98" y2="216.35"/>
<line class="st0" x1="132.5" y1="208.66" x2="132.5" y2="216.34"/>
<line class="st0" x1="128.74" y1="209.09" x2="128.74" y2="217.35"/>
<line class="st0" x1="121.22" y1="186.6" x2="136.27" y2="186.6"/>
</svg>
