<?xml version="1.0" encoding="utf-8"?>
<!-- Generator: Adobe Illustrator 25.3.1, SVG Export Plug-In . SVG Version: 6.00 Build 0)  -->
<svg version="1.1" id="Layer_1" xmlns="http://www.w3.org/2000/svg" xmlns:xlink="http://www.w3.org/1999/xlink" x="0px" y="0px"
	 viewBox="0 0 350 350" style="enable-background:new 0 0 350 350;" xml:space="preserve">
<style type="text/css">
	.st0{fill:#FFFFFF;stroke:#010101;stroke-miterlimit:10;}
	.st1{fill:none;stroke:#010101;stroke-miterlimit:10;}
</style>
<g id="hand__x5F__2">
	<path class="st0" d="M256.2,123h4c3.9,0,7.1,3.2,7.1,7.1v4.8c-3.3,0-6,2.7-6,6s2.7,6,6,6v4.8c0,3.9-3.2,7.1-7.1,7.1h-4
		c-3.9,0-7.1-3.2-7.1-7.1v-21.5C249.1,126.1,252.3,123,256.2,123z"/>
	<path class="st0" d="M261.3,140.8c0-3.3,2.7-6,6-6v12C264,146.8,261.3,144.1,261.3,140.8z"/>
	<path class="st0" d="M245.9,178.4h3.3c5,0,9.1-4.1,9.1-9.1v-17.9c0-5-4.1-9.1-9.1-9.1h-3.3c-5,0-9.1,4.1-9.1,9.1v17.9
		C236.8,174.3,240.9,178.4,245.9,178.4z"/>
	<path class="st0" d="M217.2,146.8l0.6,4c0.6,3.9,4.3,6.5,8.1,5.9l11.5-1.9c3.9-0.6,6.5-4.3,5.9-8.1l-0.6-4
		c-0.6-3.9-4.3-6.5-8.1-5.9l-11.5,1.9C219.2,139.3,216.6,142.9,217.2,146.8z"/>
	<circle class="st0" cx="229" cy="146.7" r="6.4"/>
	<path class="st0" d="M241.4,167h4c3.9,0,7.1-3.2,7.1-7.1v-39.3c0-3.9-3.2-7.1-7.1-7.1h-4c-3.9,0-7.1,3.2-7.1,7.1v39.3
		C234.3,163.9,237.5,167,241.4,167z"/>
	<path class="st0" d="M247.1,162.5h4c3.9,0,7.1-3.2,7.1-7.1v-30.3c0-3.9-3.2-7.1-7.1-7.1h-4c-3.9,0-7.1,3.2-7.1,7.1v30.3
		C240,159.3,243.1,162.5,247.1,162.5z"/>
	<path class="st0" d="M245.5,185.2h4c3.9,0,7.1-3.2,7.1-7.1l0,0c0-3.9-3.2-7.1-7.1-7.1h-4c-3.9,0-7.1,3.2-7.1,7.1l0,0
		C238.5,182,241.6,185.2,245.5,185.2z"/>
	<path class="st0" d="M244.8,219.6h5.6c3.9,0,7.1-3.2,7.1-7.1v-30.3c0-3.9-3.2-7.1-7.1-7.1h-5.6c-3.9,0-7.1,3.2-7.1,7.1v30.3
		C237.7,216.4,240.9,219.6,244.8,219.6z"/>
	<ellipse class="st0" cx="247.9" cy="217.1" rx="11.1" ry="9.3"/>
	<line class="st1" x1="251.1" y1="171.2" x2="251.1" y2="175.2"/>
	<line class="st1" x1="244.1" y1="171.2" x2="244" y2="175.2"/>
	<path class="st0" d="M238,215c0,4,4.1,7.2,10.2,7.2s9.6-3.2,9.6-7.2s-3.4-7.2-9.6-7.2C242.1,207.8,238,211,238,215z"/>
	<circle class="st0" cx="249.1" cy="124.9" r="1.2"/>
	<circle class="st0" cx="249.1" cy="154.1" r="1.2"/>
	<line class="st1" x1="257.7" y1="124.9" x2="250.3" y2="124.9"/>
	<line class="st1" x1="247.6" y1="124.9" x2="240" y2="124.9"/>
	<line class="st1" x1="258.2" y1="154.1" x2="250.3" y2="154.1"/>
	<line class="st1" x1="247.9" y1="154.1" x2="240" y2="154.1"/>
	<line class="st1" x1="227.4" y1="138" x2="227.8" y2="140.4"/>
	<line class="st1" x1="249.1" y1="126.1" x2="249.1" y2="136.6"/>
	<line class="st1" x1="249.1" y1="139" x2="249.1" y2="153.1"/>
	<path class="st0" d="M262.5,140.8c0-2.6,2.1-4.8,4.8-4.8v9.5C264.7,145.6,262.5,143.4,262.5,140.8z"/>
	<path class="st0" d="M265.6,140.8c0-0.9,0.7-1.7,1.7-1.7v3.3C266.4,142.5,265.6,141.7,265.6,140.8z"/>
	<line class="st1" x1="267" y1="134.6" x2="258.2" y2="124.9"/>
	<line class="st1" x1="267.3" y1="146.8" x2="258.2" y2="154.1"/>
	<line class="st1" x1="265.6" y1="125.5" x2="262.2" y2="129.2"/>
	<line class="st1" x1="265.6" y1="156.1" x2="261.6" y2="151.4"/>
	<line class="st1" x1="261.3" y1="140.8" x2="258.2" y2="140.8"/>
	<circle class="st0" cx="249.1" cy="138" r="2.8"/>
	<circle class="st0" cx="249.1" cy="138" r="1.3"/>
	<path class="st0" d="M93.8,123h-4c-3.9,0-7.1,3.2-7.1,7.1v4.8c3.3,0,6,2.7,6,6s-2.7,6-6,6v4.8c0,3.9,3.2,7.1,7.1,7.1h4
		c3.9,0,7.1-3.2,7.1-7.1v-21.5C100.9,126.2,97.7,123,93.8,123z"/>
	<path class="st0" d="M88.7,140.8c0-3.3-2.7-6-6-6v12C86,146.8,88.7,144.1,88.7,140.8z"/>
	<path class="st0" d="M104.1,178.4h-3.3c-5,0-9.1-4.1-9.1-9.1v-17.9c0-5,4.1-9.1,9.1-9.1h3.3c5,0,9.1,4.1,9.1,9.1v17.9
		C113.2,174.3,109.1,178.4,104.1,178.4z"/>
	<path class="st0" d="M132.8,146.8l-0.6,4c-0.6,3.9-4.3,6.5-8.1,5.9l-11.5-1.9c-3.9-0.6-6.5-4.3-5.9-8.1l0.6-4
		c0.6-3.9,4.3-6.5,8.1-5.9l11.5,1.9C130.8,139.3,133.4,142.9,132.8,146.8z"/>
	<circle class="st0" cx="121" cy="146.7" r="6.4"/>
	<path class="st0" d="M108.6,167.1h-4c-3.9,0-7.1-3.2-7.1-7.1v-39.3c0-3.9,3.2-7.1,7.1-7.1h4c3.9,0,7.1,3.2,7.1,7.1V160
		C115.7,163.9,112.5,167.1,108.6,167.1z"/>
	<path class="st0" d="M102.9,162.5h-4c-3.9,0-7.1-3.2-7.1-7.1v-30.3c0-3.9,3.2-7.1,7.1-7.1h4c3.9,0,7.1,3.2,7.1,7.1v30.3
		C110,159.4,106.9,162.5,102.9,162.5z"/>
	<path class="st0" d="M104.5,185.2h-4c-3.9,0-7.1-3.2-7.1-7.1l0,0c0-3.9,3.2-7.1,7.1-7.1h4c3.9,0,7.1,3.2,7.1,7.1l0,0
		C111.5,182,108.4,185.2,104.5,185.2z"/>
	<path class="st0" d="M105.2,219.6h-5.6c-3.9,0-7.1-3.2-7.1-7.1v-30.3c0-3.9,3.2-7.1,7.1-7.1h5.6c3.9,0,7.1,3.2,7.1,7.1v30.3
		C112.3,216.4,109.1,219.6,105.2,219.6z"/>
	<ellipse class="st0" cx="102.1" cy="217.1" rx="11.1" ry="9.3"/>
	<line class="st1" x1="98.9" y1="171.2" x2="98.9" y2="175.2"/>
	<line class="st1" x1="105.9" y1="171.2" x2="106" y2="175.2"/>
	<path class="st0" d="M112,215c0,4-4.1,7.2-10.2,7.2c-6.1,0-9.6-3.2-9.6-7.2s3.4-7.2,9.6-7.2C107.9,207.8,112,211,112,215z"/>
	<circle class="st0" cx="100.9" cy="124.9" r="1.2"/>
	<circle class="st0" cx="100.9" cy="154.1" r="1.2"/>
	<line class="st1" x1="92.3" y1="124.9" x2="99.7" y2="124.9"/>
	<line class="st1" x1="102.4" y1="124.9" x2="110" y2="124.9"/>
	<line class="st1" x1="91.8" y1="154.1" x2="99.7" y2="154.1"/>
	<line class="st1" x1="102.1" y1="154.1" x2="110" y2="154.1"/>
	<line class="st1" x1="122.6" y1="138" x2="122.2" y2="140.4"/>
	<line class="st1" x1="100.9" y1="126.1" x2="100.9" y2="136.6"/>
	<line class="st1" x1="100.9" y1="139" x2="100.9" y2="153.2"/>
	<path class="st0" d="M87.5,140.8c0-2.6-2.1-4.8-4.8-4.8v9.5C85.3,145.6,87.5,143.4,87.5,140.8z"/>
	<path class="st0" d="M84.4,140.8c0-0.9-0.7-1.7-1.7-1.7v3.3C83.6,142.5,84.4,141.7,84.4,140.8z"/>
	<line class="st1" x1="83" y1="134.6" x2="91.8" y2="124.9"/>
	<line class="st1" x1="82.7" y1="146.8" x2="91.8" y2="154.1"/>
	<line class="st1" x1="84.4" y1="125.5" x2="87.8" y2="129.3"/>
	<line class="st1" x1="84.4" y1="156.1" x2="88.4" y2="151.4"/>
	<line class="st1" x1="88.7" y1="140.8" x2="91.8" y2="140.8"/>
	<circle class="st0" cx="100.9" cy="138" r="2.8"/>
	<circle class="st0" cx="100.9" cy="138" r="1.3"/>
</g>
</svg>
