<?xml version="1.0" encoding="utf-8"?>
<!-- Generator: Adobe Illustrator 25.3.1, SVG Export Plug-In . SVG Version: 6.00 Build 0)  -->
<svg version="1.1" id="Layer_1" xmlns="http://www.w3.org/2000/svg" xmlns:xlink="http://www.w3.org/1999/xlink" x="0px" y="0px"
	 viewBox="0 0 350 350" style="enable-background:new 0 0 350 350;" xml:space="preserve">
<style type="text/css">
	.st0{fill:#FFFFFF;stroke:#010101;stroke-miterlimit:10;}
</style>
<g id="frame">
	<polygon class="st0" points="68.5,15.7 40.8,53.8 0,49.4 0,0 61.6,0 	"/>
	<polygon class="st0" points="173.9,150.5 127.1,145.6 107.9,102.6 135.6,64.5 182.4,69.4 201.6,112.5 	"/>
	<polygon class="st0" points="107.2,102 60.3,97.1 41.2,54 68.9,15.9 115.8,20.9 134.9,63.9 	"/>
	<polygon class="st0" points="98.4,183.4 51.6,178.5 32.5,135.4 60.2,97.4 107,102.3 126.1,145.4 	"/>
	<polygon class="st0" points="90.4,265.3 43.5,260.3 24.4,217.3 52.1,179.2 99,184.2 118.1,227.2 	"/>
	<polygon class="st0" points="164.7,231.7 117.9,226.7 98.8,183.7 126.5,145.6 173.3,150.6 192.4,193.6 	"/>
	<polygon class="st0" points="239.3,198.1 192.4,193.2 173.3,150.1 201,112.1 247.9,117 267,160 	"/>
	<polygon class="st0" points="248,117.2 201.1,112.3 182,69.2 209.7,31.2 256.5,36.1 275.7,79.2 	"/>
	<polygon class="st0" points="210.2,20.9 182.5,59 135.6,54 116.5,11 124.5,0 200.9,0 	"/>
	<polygon class="st0" points="50,96.5 25.9,129.6 0,126.8 0,55.7 33.4,59.2 	"/>
	<polygon class="st0" points="51.4,178.7 23.7,216.8 0,214.3 0,132.2 32.3,135.7 	"/>
	<polygon class="st0" points="350,114.4 350,134 327.7,164.6 280.9,159.7 261.8,116.7 289.5,78.6 336.3,83.5 	"/>
	<polygon class="st0" points="350,12.6 350,45.9 331.5,71.4 284.7,66.4 265.5,23.4 282.5,0 344.4,0 	"/>
	<polygon class="st0" points="308.4,255.1 261.5,250.2 242.4,207.2 270.1,169.1 317,174 336.1,217.1 	"/>
	<polygon class="st0" points="155.8,312.9 108.9,307.9 89.8,264.9 117.5,226.8 164.4,231.8 183.5,274.8 	"/>
	<polygon class="st0" points="230.1,279.3 183.3,274.3 164.2,231.3 191.9,193.2 238.7,198.1 257.8,241.2 	"/>
	<polygon class="st0" points="39.7,264.2 11.9,302.3 0,301 0,219 20.5,221.2 	"/>
	<polygon class="st0" points="107.4,319.9 85.5,350 31.5,350 13.7,310 41.4,271.9 88.3,276.8 	"/>
	<polygon class="st0" points="253.2,330.9 239.4,350 172.5,350 159.6,321 187.3,282.9 234.1,287.9 	"/>
	<polygon class="st0" points="166.8,350 92,350 110.7,324.3 157.6,329.2 	"/>
	<polygon class="st0" points="308.4,343 261.5,338.1 242.4,295 270.1,257 317,261.9 336.1,305 	"/>
	<polygon class="st0" points="350,150 350,221.7 348.4,221.5 329.3,178.5 	"/>
	<polygon class="st0" points="350,222.4 350,304.5 339.6,303.4 320.5,260.3 348.2,222.3 	"/>
	<polygon class="st0" points="26,350 0,350 0,308.5 7.9,309.3 	"/>
	<polygon class="st0" points="350,309 350,350 314.2,350 312.5,346 340.2,307.9 	"/>
</g>
</svg>
