<?xml version="1.0" encoding="utf-8"?>
<!-- Generator: Adobe Illustrator 24.0.0, SVG Export Plug-In . SVG Version: 6.00 Build 0)  -->
<svg version="1.1" id="Layer_1" xmlns="http://www.w3.org/2000/svg" xmlns:xlink="http://www.w3.org/1999/xlink" x="0px" y="0px"
	 viewBox="0 0 350 350" style="enable-background:new 0 0 350 350;" xml:space="preserve">
<style type="text/css">
	.st0{fill:none;stroke:#010101;stroke-miterlimit:10;}
</style>
<path class="st0" d="M174.9,142.44L174.9,142.44c-3.34,0-6.08-2.74-6.08-6.08v-8.11c0-3.34,2.74-6.08,6.08-6.08l0,0
	c3.34,0,6.08,2.74,6.08,6.08v8.11C180.98,139.71,178.25,142.44,174.9,142.44z"/>
<path class="st0" d="M171.44,151.45L171.44,151.45c0.86,0,1.56-0.7,1.56-1.56V137.3c0-0.86-0.7-1.56-1.56-1.56l0,0
	c-0.86,0-1.56,0.7-1.56,1.56v12.58C169.88,150.75,170.58,151.45,171.44,151.45z"/>
<ellipse class="st0" cx="171.44" cy="136.27" rx="2.16" ry="2.61"/>
</svg>
