<?xml version="1.0" encoding="utf-8"?>
<!-- Generator: Adobe Illustrator 24.0.0, SVG Export Plug-In . SVG Version: 6.00 Build 0)  -->
<svg version="1.1" id="Layer_1" xmlns="http://www.w3.org/2000/svg" xmlns:xlink="http://www.w3.org/1999/xlink" x="0px" y="0px"
	 viewBox="0 0 350 350" style="enable-background:new 0 0 350 350;" xml:space="preserve">
<style type="text/css">
	.st0{fill:none;stroke:#010101;stroke-miterlimit:10;}
</style>
<path class="st0" d="M195.86,175.06c0,1.12-0.45,2.14-1.19,2.87s-1.75,1.19-2.87,1.19H158c-2.24,0-4.06-1.82-4.06-4.06
	c0-1.12,0.45-2.14,1.19-2.87S156.88,171,158,171h33.8C194.04,171,195.86,172.82,195.86,175.06z"/>
<line class="st0" x1="158.88" y1="171" x2="158.88" y2="179.12"/>
<line class="st0" x1="163.8" y1="171" x2="163.8" y2="179.12"/>
<line class="st0" x1="168.69" y1="171" x2="168.69" y2="179.12"/>
<line class="st0" x1="173.57" y1="171" x2="173.57" y2="179.12"/>
<line class="st0" x1="177.19" y1="171.07" x2="177.19" y2="179.04"/>
<line class="st0" x1="182.55" y1="171" x2="182.55" y2="179.12"/>
<line class="st0" x1="187.07" y1="171" x2="187.07" y2="179.12"/>
<line class="st0" x1="191.64" y1="171.37" x2="191.64" y2="178.75"/>
</svg>
