<?xml version="1.0" encoding="utf-8"?>
<!-- Generator: Adobe Illustrator 25.3.1, SVG Export Plug-In . SVG Version: 6.00 Build 0)  -->
<svg version="1.1" id="Layer_1" xmlns="http://www.w3.org/2000/svg" xmlns:xlink="http://www.w3.org/1999/xlink" x="0px" y="0px"
	 viewBox="0 0 350 350" style="enable-background:new 0 0 350 350;" xml:space="preserve">
<style type="text/css">
	.st0{fill:none;stroke:#010101;stroke-miterlimit:10;}
</style>
<g id="head_x5F_2">
	<path class="st0" d="M201.8,171.6h-52.7v-49.3c0-5.3,4.3-9.6,9.6-9.6h33.2c5.5,0,9.9,4.4,9.9,9.9V171.6z"/>
	<path class="st0" d="M193.1,112.7h-5.3c-0.9,0-1.6-0.7-1.6-1.6l0,0c0-0.9,0.7-1.6,1.6-1.6h5.3c0.9,0,1.6,0.7,1.6,1.6l0,0
		C194.7,112,194,112.7,193.1,112.7z"/>
	<path class="st0" d="M163.7,112.7h-3.2l0,0V97.3c0-0.9,0.7-1.6,1.6-1.6l0,0c0.9,0,1.6,0.7,1.6,1.6L163.7,112.7L163.7,112.7z"/>
</g>
</svg>
