<?xml version="1.0" encoding="utf-8"?>
<!-- Generator: Adobe Illustrator 24.0.0, SVG Export Plug-In . SVG Version: 6.00 Build 0)  -->
<svg version="1.1" id="Layer_1" xmlns="http://www.w3.org/2000/svg" xmlns:xlink="http://www.w3.org/1999/xlink" x="0px" y="0px"
	 viewBox="0 0 350 350" style="enable-background:new 0 0 350 350;" xml:space="preserve">
<style type="text/css">
	.st0{fill:none;stroke:#010101;stroke-miterlimit:10;}
</style>
<path class="st0" d="M195.4,184.64l-19.07-0.1c-0.39,0.06-0.78,0.1-1.2,0.1c-0.44,0-0.85-0.05-1.26-0.11l-19.43-0.1
	c-0.08,0.74-0.13,1.49-0.13,2.25c0,4.69,1.56,9.01,4.21,12.47h32.77c2.64-3.46,4.21-7.78,4.21-12.47
	C195.5,185.99,195.46,185.31,195.4,184.64z"/>
<path class="st0" d="M170,181.31c0-1.83,2.3-3.32,5.13-3.32h0.05c1.39,0.01,2.64,0.37,3.56,0.96c0.94,0.6,1.52,1.44,1.52,2.36
	c0,1.57-1.68,2.88-3.93,3.23l19.07,0.1c-0.26-2.62-1.02-5.08-2.16-7.31l-36.84,0.39l36.84-0.39c-3.41-6.67-10.33-11.24-18.33-11.24
	c-10.62,0-19.35,8.02-20.47,18.34l19.43,0.1C171.65,184.16,170,182.87,170,181.31z"/>
<polygon class="st0" points="173.16,166.16 174.13,154.31 175.81,154.31 176.66,166.16 174.91,166.09 174.2,166.09 "/>
<ellipse class="st0" cx="175.13" cy="152.67" rx="1.95" ry="1.71"/>
</svg>
